<svg xmlns="http://www.w3.org/2000/svg" xmlns:xlink="http://www.w3.org/1999/xlink" width="500" zoomAndPan="magnify" viewBox="0 0 375 374.999991" height="500" preserveAspectRatio="xMidYMid meet" version="1.0"><defs><g/><clipPath id="id1"><path d="M 103 109.144531 L 254.457031 109.144531 L 254.457031 253.894531 L 103 253.894531 Z M 103 109.144531 " clip-rule="nonzero"/></clipPath></defs><g clip-path="url(#id1)"><path fill="#ffffff" d="M 254.136719 139.132812 C 254.085938 138.140625 254.132812 137.089844 253.953125 136.109375 C 253.742188 134.96875 253.425781 133.839844 253.160156 132.710938 C 252.703125 130.746094 251.898438 128.976562 251.125 127.109375 C 250.371094 125.289062 249.042969 123.679688 247.886719 122.089844 C 247.339844 121.335938 246.523438 120.746094 245.839844 120.121094 C 245.144531 119.484375 244.4375 118.625 243.617188 118.140625 C 242.6875 117.585938 241.5625 117.230469 240.574219 116.792969 C 239.828125 116.464844 239.085938 116.078125 238.300781 115.847656 C 237.582031 115.632812 236.871094 115.394531 236.152344 115.175781 C 236.21875 115.003906 236.277344 114.828125 236.34375 114.65625 C 236.753906 113.5625 237.167969 112.464844 237.578125 111.371094 C 238.089844 110.023438 235.945312 109.148438 235.269531 110.394531 C 234.527344 111.765625 233.785156 113.117188 233.089844 114.5 C 232.816406 114.472656 232.539062 114.457031 232.261719 114.457031 C 230.984375 114.460938 229.699219 114.425781 228.421875 114.472656 C 227.550781 114.503906 226.679688 114.859375 225.847656 115.09375 C 224.882812 115.363281 223.882812 115.578125 222.941406 115.910156 C 221.898438 116.273438 220.890625 116.804688 219.882812 117.25 C 219.539062 117.398438 219.207031 117.5625 218.875 117.726562 C 218.996094 117.242188 219.121094 116.753906 219.246094 116.269531 C 219.65625 114.652344 217.390625 114.109375 216.808594 115.597656 C 216.367188 116.710938 215.929688 117.828125 215.492188 118.941406 C 215.382812 119.21875 215.269531 119.492188 215.160156 119.769531 C 214.898438 119.925781 214.636719 120.078125 214.371094 120.238281 C 211.054688 122.21875 208.1875 124.925781 205.378906 127.550781 C 204.597656 128.285156 203.824219 129.027344 203.046875 129.761719 C 202.425781 130.347656 201.773438 130.890625 201.269531 131.582031 C 200.535156 132.59375 199.816406 133.621094 199.085938 134.636719 C 198.882812 134.921875 198.667969 135.203125 198.476562 135.496094 C 198.558594 135.378906 198.660156 135.269531 198.488281 135.480469 C 198.476562 135.496094 198.46875 135.507812 198.457031 135.519531 C 198.449219 135.535156 198.4375 135.546875 198.429688 135.5625 C 198.433594 135.550781 198.445312 135.539062 198.453125 135.527344 C 198.300781 135.714844 198.148438 135.90625 197.996094 136.097656 C 195.324219 139.464844 192.847656 142.957031 190.257812 146.386719 C 187.832031 149.601562 186.199219 153.363281 184.285156 156.898438 C 183.789062 157.8125 183.257812 158.703125 182.71875 159.59375 C 182.132812 158.445312 181.539062 157.292969 180.921875 156.15625 C 181.070312 155.621094 181.234375 155.09375 181.375 154.550781 C 181.496094 154.082031 181.617188 153.609375 181.738281 153.140625 C 182.101562 151.730469 180.199219 150.960938 179.429688 152.164062 C 179.285156 152.386719 179.140625 152.609375 178.996094 152.832031 C 178.636719 152.261719 178.269531 151.695312 177.882812 151.140625 C 176.617188 149.339844 175.433594 147.570312 174.316406 145.675781 C 174.273438 145.601562 174.234375 145.527344 174.191406 145.453125 C 174.238281 144.910156 174.277344 144.371094 174.339844 143.847656 C 174.398438 143.332031 174.457031 142.816406 174.519531 142.296875 C 174.671875 140.980469 172.765625 140.671875 172.164062 141.660156 C 172.082031 141.796875 171.996094 141.933594 171.914062 142.070312 C 171.4375 141.460938 170.964844 140.855469 170.488281 140.246094 C 170.265625 139.957031 170.039062 139.671875 169.816406 139.382812 C 169.800781 139.359375 169.78125 139.328125 169.742188 139.269531 C 169.59375 139.042969 169.4375 138.828125 169.289062 138.609375 C 168.542969 137.527344 167.804688 136.441406 167.050781 135.367188 C 166.351562 134.371094 165.421875 133.542969 164.503906 132.710938 C 164.605469 132.246094 164.707031 131.78125 164.808594 131.316406 C 164.9375 130.714844 165.066406 130.113281 165.199219 129.511719 C 165.492188 128.164062 163.597656 127.214844 162.890625 128.539062 C 162.605469 129.066406 162.324219 129.59375 162.039062 130.121094 C 161.15625 128.988281 160.328125 127.78125 159.25 126.859375 C 157.660156 125.5 156.082031 124.128906 154.449219 122.820312 C 153.511719 122.066406 152.578125 121.304688 151.632812 120.558594 C 150.816406 119.917969 149.875 119.410156 148.996094 118.859375 C 148.984375 118.851562 148.972656 118.84375 148.960938 118.839844 C 149.035156 118.484375 149.105469 118.128906 149.179688 117.773438 C 149.449219 116.457031 147.511719 115.417969 146.871094 116.796875 C 146.769531 117.011719 146.671875 117.230469 146.570312 117.445312 C 145.507812 116.863281 144.433594 116.308594 143.328125 115.757812 C 141.421875 114.804688 139.320312 114.476562 137.242188 114.027344 C 136.378906 113.84375 135.488281 113.8125 134.613281 113.734375 C 133.5625 113.640625 132.464844 113.441406 131.410156 113.457031 C 130.910156 113.460938 130.40625 113.519531 129.898438 113.585938 C 129.417969 113.351562 128.757812 113.394531 128.3125 113.8125 C 128.203125 113.824219 128.09375 113.84375 127.984375 113.855469 C 127.132812 113.957031 126.28125 114.011719 125.457031 114.238281 C 124.132812 114.601562 122.808594 114.964844 121.484375 115.328125 C 120.691406 115.546875 120.03125 115.953125 119.3125 116.351562 C 118.273438 116.929688 117.167969 117.449219 116.167969 118.097656 C 115.363281 118.617188 114.621094 119.285156 113.859375 119.871094 C 113.132812 120.429688 112.285156 120.957031 111.644531 121.621094 C 110.75 122.554688 109.960938 123.621094 109.125 124.613281 C 108.597656 125.238281 108.164062 125.78125 107.804688 126.515625 C 107.207031 127.742188 106.597656 128.96875 106.003906 130.203125 C 105.632812 130.980469 105.476562 131.808594 105.269531 132.644531 C 104.996094 133.746094 104.65625 134.851562 104.441406 135.96875 C 104.246094 136.988281 104.371094 138.125 104.359375 139.15625 C 104.347656 140.03125 104.289062 140.921875 104.34375 141.792969 C 104.472656 143.808594 104.738281 145.820312 104.933594 147.828125 C 104.933594 147.832031 104.9375 147.839844 104.9375 147.84375 C 104.457031 149.070312 103.96875 150.292969 103.476562 151.515625 C 103.007812 152.679688 104.726562 153.574219 105.523438 152.859375 C 105.644531 153.316406 105.792969 153.765625 105.9375 154.226562 C 106.597656 156.335938 107.277344 158.429688 107.992188 160.519531 C 109.347656 164.484375 110.808594 168.425781 112.242188 172.367188 C 112.902344 174.175781 113.996094 175.882812 114.878906 177.59375 C 114.898438 177.636719 114.921875 177.679688 114.945312 177.726562 C 114.925781 177.78125 114.90625 177.832031 114.886719 177.886719 C 114.640625 178.609375 115.164062 179.214844 115.789062 179.421875 C 116.320312 180.507812 116.863281 181.589844 117.5 182.601562 C 119.765625 186.191406 122.027344 189.785156 124.367188 193.324219 C 125.640625 195.25 126.992188 197.058594 128.410156 198.882812 C 128.65625 199.207031 128.90625 199.527344 129.15625 199.847656 C 129.167969 199.867188 129.183594 199.894531 129.210938 199.933594 C 129.34375 200.132812 129.484375 200.324219 129.625 200.519531 C 130.394531 201.621094 131.152344 202.726562 131.933594 203.816406 C 132.472656 204.570312 133.136719 205.238281 133.753906 205.929688 C 134.21875 206.453125 134.6875 206.976562 135.15625 207.5 C 135.304688 207.667969 135.449219 207.851562 135.609375 208.007812 C 135.628906 208.027344 135.640625 208.035156 135.652344 208.046875 C 135.789062 208.234375 135.929688 208.417969 136.070312 208.605469 C 135.765625 209.507812 135.507812 210.429688 135.234375 211.34375 C 135.046875 211.960938 134.863281 212.574219 134.679688 213.191406 C 134.273438 214.542969 136.339844 215.46875 136.988281 214.167969 C 137.425781 213.289062 137.855469 212.40625 138.285156 211.523438 C 138.632812 211.96875 138.972656 212.417969 139.324219 212.859375 C 140.707031 214.609375 142.050781 216.308594 143.605469 217.910156 C 145.15625 219.507812 146.738281 221.054688 148.347656 222.59375 C 149.871094 224.050781 151.191406 225.679688 152.582031 227.261719 C 153.792969 228.640625 155.207031 229.875 156.53125 231.148438 C 156.964844 231.566406 157.394531 231.992188 157.828125 232.414062 C 157.609375 232.917969 157.386719 233.417969 157.167969 233.917969 C 156.527344 235.378906 158.613281 236.683594 159.351562 235.199219 C 159.503906 234.890625 159.652344 234.582031 159.804688 234.273438 C 160.203125 234.625 160.613281 234.964844 161.039062 235.285156 C 162.121094 236.09375 163.199219 236.902344 164.28125 237.714844 C 164.339844 237.757812 164.402344 237.804688 164.460938 237.847656 C 164.480469 237.867188 164.503906 237.894531 164.554688 237.945312 C 164.976562 238.378906 165.433594 238.78125 165.871094 239.199219 C 168.886719 242.070312 172.136719 244.65625 175.359375 247.285156 C 175.261719 247.585938 175.15625 247.878906 175.070312 248.183594 C 174.753906 249.316406 174.4375 250.449219 174.121094 251.582031 C 173.746094 252.917969 175.859375 253.910156 176.429688 252.558594 C 176.890625 251.460938 177.351562 250.363281 177.816406 249.269531 C 178.597656 249.886719 179.378906 250.507812 180.15625 251.128906 C 180.695312 251.558594 181.417969 251.644531 181.941406 251.128906 C 182.082031 250.988281 182.183594 250.800781 182.246094 250.59375 C 183.453125 249.4375 184.648438 248.257812 185.894531 247.148438 C 187.390625 245.816406 188.925781 244.535156 190.300781 243.078125 C 193.152344 240.058594 196.101562 237.1875 199.195312 234.417969 C 200.730469 233.046875 201.9375 231.445312 203.242188 229.84375 C 204.421875 228.394531 205.957031 227.273438 207.21875 225.898438 C 207.496094 225.59375 207.753906 225.265625 208 224.925781 C 208.222656 224.832031 208.429688 224.652344 208.582031 224.359375 C 208.730469 224.074219 208.878906 223.796875 209.03125 223.515625 C 209.390625 223.03125 209.753906 222.550781 210.117188 222.070312 C 210.210938 221.945312 210.304688 221.820312 210.398438 221.695312 C 210.410156 221.6875 210.410156 221.6875 210.425781 221.675781 C 211.367188 220.953125 212.160156 219.851562 212.976562 218.992188 C 213.46875 218.476562 213.925781 217.976562 214.363281 217.417969 C 215.636719 215.792969 216.914062 214.179688 218.144531 212.527344 C 218.796875 211.648438 219.445312 210.765625 220.105469 209.890625 C 220.125 209.871094 220.132812 209.863281 220.167969 209.828125 C 220.316406 209.675781 220.453125 209.511719 220.59375 209.351562 C 221.078125 208.8125 221.558594 208.277344 222.042969 207.738281 C 223.226562 206.421875 224.234375 205.042969 225.242188 203.609375 C 225.222656 203.679688 225.203125 203.75 225.179688 203.820312 C 224.800781 205.160156 226.882812 206.132812 227.492188 204.796875 C 228.945312 201.597656 230.511719 198.402344 231.773438 195.121094 C 231.859375 194.898438 231.9375 194.671875 232.023438 194.445312 C 232.242188 194.15625 232.460938 193.863281 232.679688 193.570312 C 233.738281 192.144531 234.941406 190.746094 235.855469 189.214844 C 236.875 187.503906 237.773438 185.726562 238.867188 184.058594 C 240.019531 182.304688 241.160156 180.550781 242.25 178.757812 C 244.390625 175.222656 246.03125 171.441406 247.765625 167.691406 C 248.605469 165.871094 249.039062 163.875 249.636719 161.960938 C 250.160156 160.285156 250.753906 158.636719 251.273438 156.960938 C 251.824219 155.183594 252.503906 153.351562 252.785156 151.511719 C 253.089844 149.542969 253.394531 147.574219 253.679688 145.605469 C 253.855469 144.410156 254.035156 143.214844 254.203125 142.019531 C 254.335938 141.078125 254.183594 140.078125 254.136719 139.132812 Z M 245.777344 123.46875 C 245.789062 123.488281 245.804688 123.507812 245.816406 123.527344 C 245.722656 123.445312 245.59375 123.195312 245.777344 123.46875 Z M 221 119.507812 C 221.628906 119.230469 222.257812 118.953125 222.886719 118.679688 C 223.117188 118.578125 223.347656 118.476562 223.582031 118.371094 C 223.609375 118.359375 223.621094 118.359375 223.648438 118.351562 C 223.636719 118.351562 223.632812 118.351562 223.621094 118.351562 C 223.628906 118.351562 223.640625 118.347656 223.652344 118.347656 C 223.839844 118.28125 223.886719 118.304688 223.816406 118.332031 C 224.105469 118.28125 224.457031 118.117188 224.695312 118.050781 C 225.359375 117.863281 226.023438 117.675781 226.6875 117.488281 C 227.222656 117.339844 227.777344 117.210938 228.304688 117.035156 C 228.332031 117.027344 228.339844 117.027344 228.359375 117.023438 C 228.320312 117.019531 228.289062 117.019531 228.238281 117.007812 C 228.28125 117.019531 228.335938 117.015625 228.390625 117.015625 C 228.503906 116.988281 228.53125 117 228.480469 117.019531 C 228.558594 117.011719 228.636719 117.003906 228.699219 117.003906 C 229.777344 117 230.855469 116.996094 231.933594 116.992188 C 231.601562 117.804688 231.265625 118.613281 230.929688 119.425781 C 230.835938 119.65625 230.738281 119.886719 230.644531 120.117188 C 230.632812 120.140625 230.625 120.152344 230.609375 120.1875 C 229.949219 121.582031 229.332031 123 228.691406 124.40625 C 227.761719 126.445312 226.636719 128.386719 225.769531 130.453125 C 224.6875 133.027344 223.636719 135.597656 222.628906 138.199219 C 222.503906 138.515625 222.382812 138.832031 222.257812 139.148438 C 222.238281 139.203125 222.152344 139.417969 222.105469 139.542969 C 222.058594 139.640625 222.003906 139.765625 221.988281 139.800781 C 221.832031 140.144531 221.675781 140.484375 221.519531 140.828125 C 220.996094 141.96875 220.46875 143.109375 219.949219 144.253906 C 218.851562 146.664062 217.761719 149.0625 216.789062 151.523438 C 216.488281 152.285156 216.1875 153.046875 215.882812 153.808594 C 215.824219 153.957031 215.554688 154.578125 215.839844 153.941406 C 215.761719 154.113281 215.6875 154.289062 215.613281 154.460938 C 215.003906 155.867188 214.398438 157.269531 213.789062 158.675781 C 212.871094 160.796875 211.929688 162.90625 211.0625 165.050781 C 210.007812 167.652344 208.953125 170.257812 207.902344 172.863281 C 207.804688 173.105469 207.707031 173.34375 207.613281 173.585938 C 207.609375 173.589844 207.609375 173.59375 207.605469 173.601562 C 207.296875 174.238281 207.019531 174.894531 206.726562 175.542969 C 206.226562 176.648438 205.707031 177.75 205.242188 178.875 C 204.644531 180.3125 204.050781 181.75 203.457031 183.1875 C 203.457031 183.195312 203.453125 183.199219 203.449219 183.207031 C 203.449219 183.207031 203.449219 183.203125 203.453125 183.203125 C 203.449219 183.207031 203.449219 183.210938 203.445312 183.214844 C 203.421875 183.273438 203.394531 183.324219 203.371094 183.367188 C 203.300781 183.511719 203.230469 183.65625 203.160156 183.800781 C 202.769531 184.597656 202.378906 185.394531 201.988281 186.195312 C 200.929688 188.355469 199.917969 190.542969 198.957031 192.75 C 198.367188 194.101562 197.835938 195.484375 197.28125 196.847656 C 197.164062 197.132812 197.046875 197.417969 196.933594 197.703125 C 196.929688 197.707031 196.929688 197.710938 196.925781 197.71875 C 196.609375 198.269531 196.382812 198.902344 196.113281 199.480469 C 194.933594 202.046875 193.914062 204.625 192.914062 207.273438 C 192.527344 208.296875 192.132812 209.320312 191.738281 210.34375 C 191.46875 211.042969 191.1875 211.742188 190.929688 212.445312 C 190.800781 212.667969 190.703125 212.917969 190.589844 213.148438 C 190.394531 213.550781 190.214844 213.957031 190.023438 214.359375 C 190.664062 212.414062 191.386719 210.5 192.101562 208.578125 C 192.429688 207.699219 192.761719 206.816406 193.089844 205.9375 C 193.347656 205.25 193.605469 204.558594 193.867188 203.871094 C 193.890625 203.800781 193.921875 203.726562 193.953125 203.65625 C 193.957031 203.640625 193.96875 203.605469 193.988281 203.554688 C 194 203.519531 194.015625 203.484375 194.023438 203.449219 C 194.015625 203.472656 194.011719 203.484375 194.007812 203.503906 C 194.015625 203.484375 194.019531 203.472656 194.027344 203.453125 C 194.972656 201.359375 195.960938 199.316406 196.601562 197.113281 C 197.28125 194.789062 198.027344 192.566406 198.878906 190.300781 C 199.648438 188.253906 200.550781 186.210938 201.179688 184.117188 C 201.277344 183.90625 201.371094 183.691406 201.464844 183.480469 C 201.78125 182.78125 202.097656 182.078125 202.414062 181.378906 C 202.800781 180.519531 203.203125 179.671875 203.53125 178.789062 C 204.359375 176.578125 205.171875 174.390625 205.855469 172.128906 C 206.066406 171.433594 206.277344 170.734375 206.488281 170.039062 C 206.523438 169.921875 206.574219 169.785156 206.609375 169.65625 C 206.570312 169.757812 206.527344 169.785156 206.640625 169.53125 C 206.640625 169.527344 206.644531 169.527344 206.644531 169.523438 C 206.644531 169.519531 206.648438 169.515625 206.648438 169.507812 C 206.648438 169.511719 206.644531 169.515625 206.644531 169.519531 C 207.230469 168.230469 207.796875 166.929688 208.375 165.636719 C 209.210938 163.757812 209.703125 161.742188 210.410156 159.808594 C 211.136719 157.820312 211.980469 155.867188 212.75 153.890625 C 213.097656 152.996094 213.429688 152.109375 213.746094 151.222656 C 213.800781 151.105469 213.859375 150.984375 213.914062 150.867188 C 214.679688 149.136719 215.355469 147.332031 216 145.550781 C 216.402344 144.4375 216.769531 143.3125 217.152344 142.191406 C 217.308594 141.742188 217.519531 141.28125 217.628906 140.816406 C 217.628906 140.808594 217.628906 140.808594 217.628906 140.800781 C 217.695312 140.660156 217.761719 140.511719 217.824219 140.371094 C 218.664062 138.5 219.550781 136.648438 220.253906 134.722656 C 220.96875 132.753906 221.683594 130.789062 222.363281 128.8125 C 222.6875 127.867188 223.011719 126.925781 223.335938 125.980469 C 223.875 124.417969 221.480469 123.816406 220.898438 125.308594 C 220.472656 126.410156 220.042969 127.515625 219.617188 128.621094 C 219.441406 129.074219 219.230469 129.535156 219.078125 130 C 219.074219 130.007812 219.074219 130.011719 219.070312 130.019531 C 218.957031 130.246094 218.851562 130.476562 218.746094 130.707031 C 217.703125 132.910156 216.71875 135.070312 215.855469 137.347656 C 215.019531 139.558594 214.21875 141.777344 213.417969 144 C 212.765625 145.796875 212.382812 147.683594 211.761719 149.492188 C 211.738281 149.550781 211.714844 149.605469 211.691406 149.664062 C 211.078125 150.65625 210.664062 151.847656 210.167969 152.902344 C 209.285156 154.777344 208.566406 156.707031 207.816406 158.636719 C 207.734375 158.851562 207.648438 159.0625 207.570312 159.273438 C 207.578125 159.261719 207.582031 159.25 207.59375 159.238281 C 207.578125 159.261719 207.566406 159.292969 207.550781 159.316406 C 207.527344 159.371094 207.503906 159.414062 207.484375 159.449219 C 207.324219 159.742188 207.191406 160.066406 207.050781 160.359375 C 206.496094 161.503906 205.941406 162.644531 205.390625 163.785156 C 204.605469 165.417969 203.859375 167.074219 203.046875 168.695312 C 202.238281 170.3125 201.359375 171.902344 200.519531 173.507812 C 199.609375 175.238281 198.773438 177.023438 197.734375 178.683594 C 196.664062 180.398438 195.566406 182.042969 194.738281 183.886719 C 193.894531 185.777344 193.050781 187.582031 192.039062 189.382812 C 191.011719 191.21875 190.011719 193.066406 189.023438 194.925781 C 188.074219 196.710938 186.976562 198.378906 185.878906 200.082031 C 184.828125 201.722656 184.136719 203.585938 183.328125 205.355469 C 182.917969 206.253906 182.457031 207.144531 181.980469 208.023438 C 182.136719 207.605469 182.289062 207.183594 182.445312 206.765625 C 182.503906 206.609375 182.582031 206.445312 182.621094 206.285156 C 183.46875 204.367188 184.296875 202.441406 185.144531 200.523438 C 186.074219 198.40625 186.988281 196.289062 187.871094 194.152344 C 188.113281 193.574219 188.355469 192.992188 188.597656 192.410156 C 188.609375 192.375 188.65625 192.269531 188.6875 192.203125 C 188.714844 192.132812 188.746094 192.070312 188.757812 192.042969 C 189.308594 190.78125 189.859375 189.519531 190.414062 188.261719 C 191.183594 186.503906 191.820312 184.6875 192.582031 182.929688 C 192.585938 182.925781 192.636719 182.832031 192.710938 182.703125 C 192.859375 182.449219 192.996094 182.1875 193.136719 181.925781 C 193.496094 181.269531 193.855469 180.613281 194.210938 179.957031 C 194.625 179.203125 195.042969 178.492188 195.316406 177.675781 C 195.761719 176.367188 196.203125 175.058594 196.644531 173.75 C 196.664062 173.691406 196.6875 173.632812 196.710938 173.574219 C 196.707031 173.5625 196.71875 173.488281 196.777344 173.363281 C 196.777344 173.359375 196.777344 173.359375 196.777344 173.355469 C 196.78125 173.351562 196.78125 173.34375 196.785156 173.339844 C 196.78125 173.34375 196.78125 173.34375 196.78125 173.351562 C 197.027344 172.792969 197.269531 172.234375 197.515625 171.675781 C 198.425781 169.609375 199.367188 167.566406 200.328125 165.523438 C 201.222656 163.628906 202.042969 161.703125 202.90625 159.792969 C 203.691406 158.054688 204.621094 156.371094 205.359375 154.605469 C 207.007812 150.644531 208.699219 146.699219 210.152344 142.660156 C 211.570312 138.707031 213.355469 134.90625 214.851562 130.984375 C 216.09375 127.730469 217.117188 124.398438 218.011719 121.035156 C 218.980469 120.484375 219.960938 119.964844 221 119.507812 Z M 181.324219 232.007812 C 181.351562 231.882812 181.488281 231.667969 181.34375 231.96875 C 181.335938 231.980469 181.332031 231.992188 181.324219 232.007812 Z M 181.546875 237.496094 C 181.546875 237.496094 181.550781 237.492188 181.550781 237.492188 C 181.550781 237.519531 181.546875 237.550781 181.539062 237.578125 C 181.546875 237.546875 181.546875 237.519531 181.546875 237.496094 Z M 181.539062 237.578125 C 181.535156 237.59375 181.53125 237.605469 181.527344 237.621094 C 181.53125 237.605469 181.535156 237.589844 181.539062 237.578125 Z M 193.714844 197.976562 C 193.726562 197.871094 193.898438 197.574219 193.742188 197.917969 C 193.734375 197.9375 193.726562 197.957031 193.714844 197.976562 Z M 219.195312 135.660156 C 219.132812 135.847656 219.144531 135.789062 219.195312 135.660156 Z M 217.417969 135.140625 Z M 211.761719 155.433594 C 211.652344 155.761719 211.703125 155.582031 211.761719 155.433594 Z M 171.097656 229 C 171.097656 229.007812 171.09375 229.011719 171.09375 229.015625 C 171.058594 229.070312 171.027344 229.128906 171.003906 229.191406 C 170.9375 229.285156 170.910156 229.257812 171.097656 229 Z M 174.796875 225.277344 C 174.726562 225.492188 174.742188 225.421875 174.796875 225.277344 Z M 178.636719 215.734375 C 178.636719 215.730469 178.640625 215.726562 178.640625 215.722656 C 178.632812 215.75 178.628906 215.773438 178.621094 215.796875 C 178.625 215.773438 178.632812 215.753906 178.636719 215.734375 Z M 215.363281 125.785156 C 215.355469 125.8125 215.339844 125.851562 215.324219 125.890625 C 215.335938 125.855469 215.351562 125.820312 215.363281 125.785156 Z M 181.539062 162.820312 C 181.855469 163.425781 182.417969 163.550781 182.914062 163.386719 C 183.230469 163.339844 183.535156 163.15625 183.746094 162.796875 C 185.671875 159.539062 187.441406 156.234375 189.253906 152.910156 C 189.875 151.765625 190.472656 150.601562 191.128906 149.472656 C 191.5 148.828125 191.992188 148.257812 192.441406 147.664062 C 193.695312 146.003906 194.929688 144.332031 196.140625 142.640625 C 196.484375 142.160156 196.832031 141.683594 197.171875 141.203125 C 197.238281 141.105469 197.320312 141.015625 197.378906 140.914062 C 197.359375 140.945312 197.347656 140.964844 197.332031 140.992188 C 197.359375 140.949219 197.390625 140.90625 197.414062 140.875 C 198.207031 139.882812 198.996094 138.886719 199.785156 137.890625 C 201.035156 136.316406 202.171875 134.652344 203.34375 133.015625 C 203.386719 132.953125 203.433594 132.890625 203.476562 132.828125 C 203.496094 132.8125 203.511719 132.800781 203.546875 132.769531 C 204.003906 132.410156 204.410156 131.953125 204.832031 131.554688 C 205.609375 130.820312 206.378906 130.078125 207.160156 129.351562 C 207.898438 128.660156 208.644531 127.976562 209.386719 127.289062 C 209.820312 126.890625 210.261719 126.5 210.683594 126.089844 C 210.710938 126.066406 210.746094 126.039062 210.777344 126.011719 C 210.796875 125.980469 210.839844 125.929688 210.917969 125.875 C 210.921875 125.871094 210.929688 125.863281 210.9375 125.859375 C 210.9375 125.855469 210.945312 125.851562 210.949219 125.847656 C 210.945312 125.851562 210.945312 125.851562 210.941406 125.855469 C 211.777344 125.226562 212.597656 124.570312 213.433594 123.945312 C 212.917969 125.191406 212.410156 126.441406 211.921875 127.703125 C 211.683594 128.316406 211.441406 128.929688 211.207031 129.546875 C 211.199219 129.566406 211.195312 129.574219 211.1875 129.589844 C 211.199219 129.574219 211.203125 129.566406 211.214844 129.546875 C 211.199219 129.570312 211.1875 129.597656 211.171875 129.621094 C 211.132812 129.710938 211.101562 129.757812 211.09375 129.761719 C 211.0625 129.828125 211.035156 129.894531 211.003906 129.953125 C 210.34375 131.207031 209.6875 132.457031 209.03125 133.710938 C 208.117188 135.453125 207.257812 137.265625 206.503906 139.082031 C 206.003906 140.292969 205.511719 141.507812 205.011719 142.722656 C 204.910156 142.96875 204.808594 143.21875 204.707031 143.46875 C 204.703125 143.476562 204.699219 143.480469 204.695312 143.488281 C 204.699219 143.488281 204.699219 143.488281 204.699219 143.488281 C 204.699219 143.488281 204.699219 143.488281 204.695312 143.492188 C 204.59375 143.738281 204.5625 143.71875 204.617188 143.613281 C 204.378906 143.96875 204.210938 144.441406 204.019531 144.808594 C 202.9375 146.921875 201.875 149.042969 200.835938 151.179688 C 199.875 153.148438 198.839844 155.074219 197.835938 157.015625 C 196.976562 158.683594 196.238281 160.433594 195.28125 162.046875 C 192.925781 166.015625 190.714844 170.023438 188.65625 174.15625 C 186.867188 177.753906 184.894531 181.28125 182.96875 184.808594 C 181.851562 186.847656 180.742188 188.867188 179.527344 190.847656 C 178.6875 192.222656 177.957031 193.605469 177.253906 195.023438 C 177.507812 194.472656 177.761719 193.917969 178.015625 193.367188 C 178.714844 191.84375 179.679688 190.421875 180.523438 188.976562 C 181.367188 187.535156 181.9375 185.917969 182.609375 184.390625 C 183.28125 182.859375 184.015625 181.351562 184.730469 179.839844 C 185.441406 178.324219 186.246094 176.855469 187.015625 175.371094 C 187.785156 173.890625 188.449219 172.355469 189.144531 170.835938 C 189.835938 169.320312 190.582031 167.828125 191.316406 166.332031 C 192.0625 164.808594 192.679688 163.238281 193.324219 161.671875 C 193.503906 161.230469 193.6875 160.792969 193.863281 160.351562 C 193.875 160.328125 193.878906 160.320312 193.886719 160.300781 C 193.898438 160.28125 193.917969 160.246094 193.945312 160.195312 C 194.453125 159.246094 194.90625 158.265625 195.386719 157.304688 C 196.132812 155.808594 196.78125 154.292969 197.433594 152.757812 C 198.742188 149.6875 200.042969 146.617188 201.171875 143.476562 C 201.453125 142.699219 201.734375 141.925781 202.011719 141.148438 C 202.226562 140.554688 201.820312 139.882812 201.28125 139.652344 C 200.660156 139.390625 200.085938 139.65625 199.703125 140.171875 C 198.730469 141.484375 197.710938 142.769531 196.777344 144.109375 C 195.902344 145.367188 195.222656 146.804688 194.464844 148.136719 C 193.070312 150.601562 191.347656 152.898438 189.839844 155.300781 C 188.316406 157.722656 187.027344 160.253906 185.617188 162.742188 C 184.066406 165.484375 182.414062 168.121094 180.75 170.796875 C 177.53125 175.980469 174.429688 181.234375 171.4375 186.558594 C 168.535156 191.726562 165.589844 196.882812 162.601562 202 C 162.171875 202.734375 161.726562 203.457031 161.277344 204.179688 C 161.546875 203.46875 161.8125 202.761719 162.078125 202.054688 C 162.144531 201.875 162.226562 201.691406 162.289062 201.503906 C 162.296875 201.488281 162.304688 201.476562 162.320312 201.449219 C 163.535156 199.25 164.605469 196.972656 165.613281 194.671875 C 166.65625 192.285156 167.628906 189.878906 168.59375 187.457031 C 168.621094 187.386719 168.746094 187.117188 168.753906 187.082031 C 168.792969 187.011719 168.824219 186.949219 168.835938 186.925781 C 169.183594 186.226562 169.53125 185.527344 169.875 184.832031 C 170.351562 183.871094 170.886719 182.925781 171.234375 181.910156 C 171.726562 180.488281 172.25 179.070312 172.707031 177.632812 C 172.714844 177.613281 172.71875 177.605469 172.726562 177.589844 C 172.710938 177.613281 172.703125 177.628906 172.679688 177.65625 C 172.703125 177.632812 172.714844 177.597656 172.734375 177.566406 C 172.777344 177.449219 172.804688 177.421875 172.792969 177.464844 C 172.863281 177.335938 172.925781 177.199219 172.988281 177.078125 C 173.375 176.351562 173.761719 175.625 174.148438 174.898438 C 174.628906 173.992188 175.136719 173.132812 175.445312 172.152344 C 175.890625 170.734375 176.296875 169.296875 176.78125 167.894531 C 177.460938 165.921875 178.457031 164.066406 179.117188 162.085938 C 179.390625 161.265625 179.640625 160.453125 179.894531 159.640625 C 180.449219 160.699219 180.988281 161.761719 181.539062 162.820312 Z M 175.964844 152.800781 C 176.507812 153.574219 177 154.382812 177.472656 155.207031 C 176.980469 155.980469 176.5 156.765625 176.050781 157.5625 C 174.820312 159.742188 173.574219 161.851562 172.210938 163.945312 C 169.835938 167.585938 167.671875 171.355469 165.367188 175.039062 C 164.136719 177.007812 162.871094 178.953125 161.707031 180.964844 C 161.164062 181.902344 160.652344 182.839844 160.152344 183.785156 C 160.273438 183.40625 160.394531 183.027344 160.519531 182.65625 C 160.691406 182.140625 160.910156 181.617188 161.058594 181.089844 C 161.039062 181.136719 161.054688 181.039062 161.113281 180.894531 C 161.117188 180.878906 161.121094 180.867188 161.125 180.851562 C 161.121094 180.867188 161.121094 180.875 161.117188 180.886719 C 161.125 180.871094 161.128906 180.855469 161.136719 180.835938 C 161.289062 180.5 161.441406 180.164062 161.59375 179.824219 C 162.753906 177.242188 163.863281 174.640625 164.949219 172.023438 C 165.019531 171.855469 165.089844 171.691406 165.15625 171.523438 C 164.988281 171.929688 165.082031 171.707031 165.207031 171.421875 C 165.53125 170.691406 165.855469 169.960938 166.179688 169.230469 C 166.605469 168.261719 167.035156 167.296875 167.449219 166.324219 C 168.566406 163.6875 169.625 161.058594 170.628906 158.378906 C 171.390625 156.335938 171.867188 154.203125 172.511719 152.121094 C 172.820312 151.128906 173.164062 150.136719 173.472656 149.136719 C 174.269531 150.375 175.109375 151.582031 175.964844 152.800781 Z M 157.074219 184.980469 C 157.074219 184.96875 157.082031 184.953125 157.085938 184.9375 C 157.082031 184.949219 157.074219 184.964844 157.074219 184.980469 Z M 157.121094 184.855469 C 157.125 184.839844 157.132812 184.828125 157.140625 184.8125 C 157.132812 184.828125 157.128906 184.84375 157.121094 184.855469 Z M 157.152344 184.785156 C 157.1875 184.714844 157.207031 184.675781 157.152344 184.785156 Z M 164.847656 136.617188 C 164.945312 136.761719 165.046875 136.902344 165.144531 137.046875 C 166.371094 138.820312 167.578125 140.59375 168.902344 142.292969 C 169.4375 142.980469 169.984375 143.660156 170.515625 144.351562 C 168.277344 148.007812 166.039062 151.671875 164.019531 155.449219 C 162.875 157.589844 161.90625 159.820312 160.753906 161.957031 C 159.398438 164.480469 158.03125 167 156.660156 169.515625 C 155.546875 171.554688 154.28125 173.515625 153.351562 175.644531 C 152.792969 176.914062 152.296875 178.234375 151.671875 179.472656 C 150.972656 180.855469 150.132812 182.183594 149.367188 183.53125 C 148.253906 185.488281 147.105469 187.480469 146.214844 189.550781 C 145.609375 190.957031 145.054688 192.402344 144.394531 193.78125 C 144.039062 194.519531 143.640625 195.238281 143.238281 195.953125 C 144.136719 193.773438 144.96875 191.578125 145.703125 189.324219 C 146.207031 187.78125 146.640625 186.210938 147.109375 184.65625 C 147.519531 183.300781 148.089844 181.984375 148.585938 180.660156 C 149.511719 178.199219 150.445312 175.734375 151.40625 173.285156 C 151.921875 171.96875 152.503906 170.660156 152.941406 169.3125 C 153.441406 167.769531 153.910156 166.210938 154.4375 164.675781 C 154.957031 163.171875 155.539062 161.6875 156.085938 160.195312 C 156.578125 158.863281 156.855469 157.4375 157.214844 156.066406 C 157.882812 153.519531 158.9375 151.101562 159.707031 148.582031 C 160.117188 147.234375 160.484375 145.863281 160.960938 144.53125 C 161.515625 142.980469 162.175781 141.449219 162.671875 139.878906 C 163.113281 138.480469 163.492188 137.058594 163.835938 135.628906 C 164.140625 135.9375 164.480469 136.410156 164.847656 136.617188 Z M 149.777344 122.339844 C 149.792969 122.351562 149.820312 122.367188 149.851562 122.382812 C 149.902344 122.417969 150.046875 122.511719 150.097656 122.554688 C 151.128906 123.382812 152.164062 124.210938 153.195312 125.039062 C 154.734375 126.273438 156.308594 127.523438 157.734375 128.882812 C 158.859375 129.957031 159.734375 131.296875 160.742188 132.496094 C 160.300781 133.292969 159.851562 134.082031 159.378906 134.863281 C 158.796875 135.824219 158.132812 136.765625 157.65625 137.785156 C 157.011719 139.160156 156.429688 140.574219 155.757812 141.9375 C 154.765625 143.945312 153.472656 145.765625 152.566406 147.816406 C 151.449219 150.339844 150.277344 152.820312 149.070312 155.300781 C 148.09375 157.3125 146.804688 159.148438 145.957031 161.222656 C 145.621094 162.042969 145.289062 162.863281 144.953125 163.683594 C 144.828125 163.988281 144.703125 164.296875 144.574219 164.601562 C 144.539062 164.691406 144.492188 164.773438 144.453125 164.835938 C 144.472656 164.8125 144.488281 164.789062 144.515625 164.753906 C 144.179688 165.183594 143.960938 165.789062 143.703125 166.269531 C 143.289062 167.03125 142.878906 167.796875 142.46875 168.5625 C 141.929688 169.558594 141.527344 170.621094 141.089844 171.667969 C 140.78125 172.398438 140.476562 173.132812 140.167969 173.863281 C 140.15625 173.886719 140.148438 173.90625 140.140625 173.925781 C 140.144531 173.917969 140.144531 173.910156 140.148438 173.902344 C 140.109375 173.949219 140.082031 174.011719 140.046875 174.070312 C 140.050781 174.046875 140.085938 173.976562 140.148438 173.898438 C 140.519531 172.792969 140.898438 171.691406 141.304688 170.601562 C 142.195312 168.191406 143.140625 165.808594 144.085938 163.417969 C 144.84375 161.511719 145.210938 159.441406 145.824219 157.484375 C 146.621094 154.957031 147.433594 152.457031 148.335938 149.964844 C 149.15625 147.699219 149.757812 145.390625 150.410156 143.070312 C 151 140.964844 151.65625 138.878906 152.136719 136.746094 C 152.722656 134.148438 153.285156 131.546875 153.832031 128.941406 C 153.925781 128.484375 154.023438 128.027344 154.117188 127.570312 C 154.453125 125.957031 152.253906 125.382812 151.679688 126.898438 C 151.246094 128.042969 150.816406 129.1875 150.382812 130.332031 C 150.195312 130.824219 149.953125 131.324219 149.8125 131.832031 C 149.699219 132.058594 149.597656 132.289062 149.492188 132.515625 C 148.480469 134.695312 147.488281 136.871094 146.550781 139.082031 C 145.625 141.273438 144.5625 143.367188 143.488281 145.488281 C 143.058594 146.335938 142.730469 147.234375 142.378906 148.117188 C 142.082031 148.847656 141.789062 149.578125 141.496094 150.308594 C 141.417969 150.503906 141.335938 150.699219 141.257812 150.894531 C 140.941406 151.316406 140.746094 151.925781 140.507812 152.394531 C 140.148438 153.113281 139.789062 153.828125 139.433594 154.542969 C 139.054688 155.296875 138.664062 156.039062 138.265625 156.777344 C 137.667969 157.882812 137.066406 158.984375 136.46875 160.085938 C 137.007812 158.527344 137.46875 156.925781 137.941406 155.351562 C 138.742188 152.6875 139.613281 150.09375 140.5625 147.480469 C 141.304688 145.425781 141.996094 143.355469 142.746094 141.304688 C 143.234375 139.96875 143.820312 138.640625 144.222656 137.277344 C 144.59375 136.011719 144.800781 134.671875 145.085938 133.382812 C 145.550781 131.273438 146.570312 129.34375 147.097656 127.257812 C 147.582031 125.34375 148 123.414062 148.410156 121.480469 C 148.863281 121.769531 149.316406 122.0625 149.777344 122.339844 Z M 131.902344 169.671875 C 131.898438 169.679688 131.898438 169.679688 131.894531 169.683594 C 131.855469 169.734375 131.824219 169.796875 131.792969 169.859375 C 131.753906 169.898438 131.761719 169.839844 131.902344 169.671875 Z M 128.777344 180.394531 C 128.785156 180.382812 128.789062 180.371094 128.796875 180.355469 C 128.789062 180.375 128.78125 180.390625 128.769531 180.410156 C 128.773438 180.402344 128.773438 180.398438 128.777344 180.394531 Z M 145.5 119.75 C 144.082031 122.820312 142.660156 125.890625 141.175781 128.929688 C 139.261719 132.839844 137.109375 136.597656 134.878906 140.335938 C 132.902344 143.652344 130.992188 147.003906 129.070312 150.347656 C 129.234375 149.9375 129.382812 149.523438 129.53125 149.085938 C 129.886719 148.039062 130.410156 146.933594 130.652344 145.84375 C 130.625 145.910156 130.625 145.835938 130.695312 145.675781 C 130.699219 145.65625 130.707031 145.636719 130.710938 145.617188 C 130.707031 145.636719 130.703125 145.648438 130.699219 145.664062 C 130.707031 145.652344 130.710938 145.640625 130.714844 145.625 C 130.839844 145.363281 130.960938 145.097656 131.082031 144.832031 C 131.402344 144.132812 131.722656 143.433594 132.042969 142.734375 C 132.953125 140.75 133.9375 138.800781 134.851562 136.816406 C 135.660156 135.050781 136.238281 133.160156 136.921875 131.34375 C 137.707031 129.253906 138.488281 127.164062 139.328125 125.09375 C 139.722656 124.121094 140.21875 123.140625 140.523438 122.132812 C 140.890625 120.910156 141.074219 119.597656 141.347656 118.351562 C 141.394531 118.125 141.445312 117.898438 141.492188 117.671875 C 141.871094 117.867188 142.253906 118.046875 142.628906 118.234375 C 143.613281 118.726562 144.5625 119.226562 145.5 119.75 Z M 131.421875 115.988281 C 132.53125 115.976562 133.683594 116.1875 134.785156 116.285156 C 135.300781 116.328125 135.8125 116.386719 136.328125 116.417969 C 136.480469 116.480469 136.683594 116.496094 136.835938 116.53125 C 137.472656 116.679688 138.113281 116.824219 138.753906 116.96875 C 136.882812 119.632812 134.984375 122.273438 133.109375 124.929688 C 132.089844 126.378906 131.09375 127.851562 130.085938 129.308594 C 129.09375 130.746094 127.960938 132.148438 127.074219 133.65625 C 127.019531 133.722656 126.960938 133.792969 126.902344 133.859375 C 126.558594 134.269531 126.210938 134.683594 125.863281 135.09375 C 125.175781 135.902344 124.476562 136.707031 123.804688 137.527344 C 122.644531 138.949219 121.679688 140.5625 120.636719 142.074219 C 120.421875 142.386719 120.210938 142.695312 119.996094 143.007812 C 122.515625 137.085938 124.953125 131.152344 127.089844 125.082031 C 128.140625 122.09375 129.144531 119.117188 130.09375 116.101562 C 130.539062 116.042969 130.984375 115.996094 131.421875 115.988281 Z M 121.902344 117.804688 C 121.90625 117.800781 121.90625 117.800781 121.902344 117.804688 Z M 121.773438 117.882812 C 121.917969 117.855469 122.078125 117.792969 122.210938 117.757812 C 123.515625 117.398438 124.820312 117.039062 126.128906 116.683594 C 126.132812 116.679688 126.140625 116.679688 126.144531 116.679688 C 125.84375 117.082031 125.539062 117.484375 125.238281 117.894531 C 125.238281 117.894531 125.238281 117.894531 125.234375 117.898438 C 125.226562 117.90625 125.222656 117.910156 125.210938 117.925781 C 124.953125 118.214844 124.714844 118.523438 124.46875 118.824219 C 123.832031 119.589844 123.195312 120.359375 122.558594 121.128906 C 120.78125 123.277344 119.40625 125.796875 117.78125 128.074219 C 116.722656 129.554688 115.574219 130.992188 114.503906 132.476562 C 114.921875 131.453125 115.339844 130.429688 115.757812 129.40625 C 115.820312 129.253906 115.882812 129.105469 115.941406 128.953125 C 115.957031 128.925781 115.976562 128.886719 116.007812 128.820312 C 116.308594 128.191406 116.597656 127.554688 116.894531 126.921875 C 117.410156 125.816406 118.042969 124.730469 118.3125 123.535156 C 118.636719 122.101562 118.960938 120.671875 119.285156 119.238281 C 119.648438 119.046875 120.015625 118.859375 120.367188 118.660156 C 120.832031 118.402344 121.320312 118.167969 121.773438 117.882812 Z M 106.921875 136.542969 C 106.96875 136.421875 106.984375 136.210938 107.007812 136.125 C 107.171875 135.472656 107.332031 134.820312 107.496094 134.167969 C 107.65625 133.515625 107.820312 132.863281 107.980469 132.214844 C 108.027344 132.03125 108.101562 131.835938 108.121094 131.648438 C 108.121094 131.636719 108.121094 131.632812 108.121094 131.625 C 108.726562 130.578125 109.195312 129.417969 109.726562 128.332031 C 109.839844 128.101562 110.367188 127.363281 110.328125 127.101562 C 110.460938 126.945312 110.59375 126.785156 110.726562 126.628906 C 111.582031 125.609375 112.480469 124.613281 113.304688 123.566406 C 113.335938 123.527344 113.398438 123.472656 113.449219 123.414062 C 113.359375 123.496094 113.261719 123.503906 113.523438 123.300781 C 114.011719 122.921875 114.503906 122.546875 114.996094 122.167969 C 115.417969 121.839844 115.839844 121.492188 116.261719 121.152344 C 116.175781 121.542969 116.085938 121.933594 116 122.320312 C 115.933594 122.605469 115.859375 122.886719 115.808594 123.175781 C 115.78125 123.3125 115.765625 123.375 115.761719 123.398438 C 115.550781 123.859375 115.335938 124.3125 115.121094 124.769531 C 114 127.164062 112.976562 129.570312 111.980469 132.019531 C 111.902344 132.214844 111.820312 132.40625 111.742188 132.601562 C 111.738281 132.609375 111.738281 132.613281 111.730469 132.625 C 111.453125 133.210938 111.199219 133.804688 110.933594 134.394531 C 110.5 135.367188 110.097656 136.371094 109.605469 137.316406 C 108.921875 138.613281 108.191406 139.886719 107.488281 141.167969 C 107.269531 141.570312 107.09375 141.992188 106.933594 142.421875 C 106.933594 142.410156 106.929688 142.402344 106.929688 142.394531 C 106.742188 140.453125 107.089844 138.480469 106.921875 136.542969 Z M 107.871094 151.957031 C 107.875 152.003906 107.878906 152.066406 107.882812 152.15625 C 107.882812 152.089844 107.875 152.023438 107.871094 151.957031 Z M 107.871094 151.9375 C 107.851562 151.859375 107.859375 151.84375 107.871094 151.9375 Z M 108.121094 152.738281 C 108.054688 152.527344 108 152.304688 107.917969 152.097656 C 107.894531 152.03125 107.878906 151.980469 107.871094 151.941406 C 107.816406 150.855469 107.648438 149.757812 107.542969 148.675781 C 107.535156 148.597656 107.527344 148.515625 107.519531 148.433594 C 107.578125 148.304688 107.628906 148.175781 107.6875 148.050781 C 108.273438 146.792969 109.199219 145.636719 109.953125 144.472656 C 111.457031 142.15625 112.914062 139.8125 114.324219 137.4375 C 115.042969 136.230469 115.742188 135.09375 116.578125 133.96875 C 117.421875 132.839844 118.273438 131.71875 119.09375 130.574219 C 119.9375 129.386719 120.824219 128.222656 121.625 127.003906 C 122.132812 126.234375 122.632812 125.460938 123.136719 124.691406 C 123.382812 124.320312 123.625 123.945312 123.867188 123.574219 C 124.027344 123.332031 124.3125 122.976562 123.980469 123.363281 C 124.597656 122.648438 125.195312 121.921875 125.789062 121.191406 C 124.417969 125.253906 122.953125 129.285156 121.363281 133.261719 C 120.742188 134.808594 120.078125 136.332031 119.441406 137.871094 C 119.433594 137.894531 119.429688 137.902344 119.425781 137.917969 C 119.414062 137.9375 119.410156 137.949219 119.398438 137.976562 C 119.203125 138.445312 119.003906 138.910156 118.804688 139.378906 C 118.40625 140.332031 118.007812 141.28125 117.601562 142.230469 C 116.3125 145.273438 114.964844 148.285156 113.632812 151.304688 C 112.886719 152.996094 112.125 154.710938 111.492188 156.445312 C 111.085938 157.558594 110.773438 158.71875 110.460938 159.871094 C 109.863281 158.164062 109.285156 156.449219 108.742188 154.71875 C 108.535156 154.058594 108.328125 153.398438 108.121094 152.738281 Z M 114.6875 171.699219 C 114.667969 171.667969 114.648438 171.632812 114.628906 171.605469 C 114.65625 171.644531 114.667969 171.664062 114.683594 171.695312 C 114.675781 171.667969 114.664062 171.652344 114.652344 171.613281 C 114.570312 171.371094 114.484375 171.128906 114.398438 170.882812 C 114.167969 170.21875 113.9375 169.554688 113.703125 168.890625 C 113.441406 168.132812 113.1875 167.375 112.910156 166.625 C 112.472656 165.453125 112.039062 164.277344 111.613281 163.101562 C 111.902344 163.035156 112.160156 162.84375 112.3125 162.492188 C 112.355469 162.390625 112.394531 162.289062 112.4375 162.1875 C 112.4375 162.1875 112.4375 162.1875 112.441406 162.1875 C 112.441406 162.183594 112.441406 162.183594 112.441406 162.179688 C 113.105469 160.601562 113.714844 158.972656 114.476562 157.441406 C 115.269531 155.859375 116.300781 154.390625 117.15625 152.84375 C 118.015625 151.292969 118.699219 149.640625 119.578125 148.101562 C 120.449219 146.582031 121.574219 145.164062 122.566406 143.722656 C 123.5625 142.269531 124.589844 140.835938 125.566406 139.367188 C 125.59375 139.328125 125.605469 139.304688 125.621094 139.28125 C 125.640625 139.261719 125.65625 139.246094 125.683594 139.210938 C 126.003906 138.84375 126.3125 138.46875 126.625 138.097656 C 127.355469 137.234375 128.089844 136.378906 128.8125 135.507812 C 129.976562 134.105469 130.9375 132.511719 131.972656 131.011719 C 132.96875 129.574219 133.964844 128.132812 134.957031 126.691406 C 135.742188 125.558594 136.542969 124.4375 137.34375 123.3125 C 136.601562 125.148438 135.871094 126.984375 135.175781 128.835938 C 134.371094 130.96875 133.574219 133.105469 132.777344 135.242188 C 132.746094 135.324219 132.710938 135.40625 132.679688 135.488281 C 132.6875 135.476562 132.679688 135.496094 132.65625 135.558594 C 132.636719 135.605469 132.617188 135.652344 132.605469 135.699219 C 132.617188 135.648438 132.628906 135.617188 132.640625 135.585938 C 132.625 135.621094 132.613281 135.652344 132.585938 135.707031 C 132.296875 136.296875 132.019531 136.890625 131.738281 137.480469 C 131.3125 138.359375 130.882812 139.238281 130.472656 140.125 C 129.523438 142.15625 128.539062 144.167969 127.816406 146.289062 C 127.453125 147.355469 126.976562 148.445312 126.699219 149.542969 C 126.722656 149.472656 126.722656 149.503906 126.679688 149.605469 C 126.667969 149.65625 126.648438 149.707031 126.636719 149.757812 C 126.652344 149.699219 126.664062 149.660156 126.671875 149.621094 C 126.65625 149.65625 126.636719 149.695312 126.613281 149.738281 C 126.46875 149.996094 126.335938 150.253906 126.195312 150.511719 C 125.828125 151.191406 125.460938 151.871094 125.097656 152.550781 C 124.015625 154.554688 123.207031 156.679688 122.390625 158.804688 C 122.054688 159.683594 121.773438 160.585938 121.472656 161.476562 C 121.253906 162.125 121.035156 162.769531 120.8125 163.417969 C 120.773438 163.539062 120.710938 163.671875 120.683594 163.800781 C 120.710938 163.671875 120.726562 163.597656 120.738281 163.558594 C 120.722656 163.621094 120.679688 163.757812 120.621094 163.871094 C 119.566406 165.949219 118.519531 167.980469 117.679688 170.152344 C 117.128906 171.574219 116.609375 173.003906 116.097656 174.4375 C 115.660156 173.570312 115.269531 172.585938 114.734375 171.773438 C 114.773438 171.855469 114.742188 171.832031 114.6875 171.699219 Z M 117.730469 177.628906 C 119.335938 173.90625 121.003906 170.222656 122.8125 166.589844 C 123.886719 164.425781 125.148438 162.464844 126.453125 160.429688 C 127.511719 158.785156 128.234375 156.933594 129.179688 155.21875 C 131.4375 151.128906 133.792969 147.070312 136.195312 143.0625 C 138.359375 139.449219 140.585938 135.84375 142.449219 132.058594 C 142.761719 131.425781 143.066406 130.789062 143.375 130.15625 C 143.203125 130.632812 143.039062 131.109375 142.898438 131.59375 C 142.542969 132.816406 142.339844 134.105469 142.0625 135.347656 C 141.839844 136.359375 141.546875 137.253906 141.1875 138.226562 C 140.253906 140.777344 139.355469 143.339844 138.449219 145.898438 C 137.703125 148.011719 136.878906 150.097656 136.234375 152.246094 C 135.453125 154.847656 134.636719 157.429688 133.796875 160.015625 C 133.140625 162.042969 132.234375 163.992188 131.464844 165.980469 C 130.949219 167.308594 130.363281 168.625 129.914062 169.976562 C 129.496094 171.234375 129.207031 172.550781 128.855469 173.828125 C 128.777344 174.113281 128.683594 174.394531 128.621094 174.683594 C 128.613281 174.730469 128.605469 174.757812 128.601562 174.785156 C 128.316406 175.34375 128.070312 175.933594 127.804688 176.503906 C 127.300781 177.589844 126.761719 178.660156 126.320312 179.773438 C 125.339844 182.234375 124.375 184.703125 123.390625 187.164062 C 122.285156 185.421875 121.179688 183.679688 120.070312 181.9375 C 119.195312 180.554688 118.46875 179.089844 117.730469 177.628906 Z M 128.238281 194.566406 C 128.179688 194.492188 128.121094 194.414062 128.058594 194.335938 C 128.046875 194.316406 128.023438 194.277344 127.984375 194.214844 C 127.683594 193.730469 127.355469 193.265625 127.042969 192.792969 C 126.375 191.78125 125.726562 190.765625 125.070312 189.75 C 127.007812 185.746094 129 181.765625 130.769531 177.679688 C 131.714844 175.507812 132.796875 173.4375 133.886719 171.335938 C 134.328125 170.480469 134.660156 169.570312 135.023438 168.683594 C 135.320312 167.960938 135.617188 167.238281 135.917969 166.511719 C 135.988281 166.335938 136.0625 166.15625 136.136719 165.976562 C 136.144531 165.964844 136.148438 165.964844 136.160156 165.945312 C 136.949219 164.839844 137.511719 163.476562 138.160156 162.28125 C 138.566406 161.539062 138.96875 160.792969 139.371094 160.046875 C 140.539062 157.886719 141.664062 155.71875 142.765625 153.523438 C 143.796875 151.460938 144.625 149.3125 145.46875 147.164062 C 145.589844 147.011719 145.660156 146.785156 145.75 146.609375 C 146.09375 145.925781 146.441406 145.246094 146.785156 144.5625 C 147.199219 143.75 147.636719 142.953125 147.992188 142.113281 C 148.054688 141.964844 148.121094 141.8125 148.183594 141.664062 C 147.640625 143.605469 147.175781 145.582031 146.550781 147.496094 C 145.777344 149.851562 144.855469 152.144531 144.113281 154.511719 C 143.332031 156.988281 142.617188 159.472656 141.90625 161.972656 C 141.347656 163.941406 140.390625 165.804688 139.679688 167.726562 C 137.917969 172.484375 136.488281 177.339844 134.777344 182.117188 C 134.371094 183.25 133.945312 184.371094 133.53125 185.5 C 133.355469 185.980469 133.136719 186.46875 132.988281 186.964844 C 133.03125 186.863281 133.054688 186.839844 132.949219 187.082031 C 132.949219 187.085938 132.945312 187.089844 132.945312 187.09375 C 132.941406 187.097656 132.941406 187.105469 132.9375 187.109375 C 132.941406 187.105469 132.941406 187.101562 132.941406 187.097656 C 132.8125 187.394531 132.683594 187.691406 132.554688 187.992188 C 131.472656 190.503906 130.476562 192.992188 129.5625 195.566406 C 129.503906 195.730469 129.445312 195.890625 129.390625 196.050781 C 129.003906 195.554688 128.621094 195.0625 128.238281 194.566406 Z M 134.121094 202.550781 C 134.085938 202.511719 134.09375 202.519531 134.121094 202.550781 Z M 134.664062 203.15625 C 134.511719 202.988281 134.367188 202.8125 134.210938 202.648438 C 134.191406 202.628906 134.1875 202.625 134.171875 202.609375 C 133.285156 201.105469 132.183594 199.660156 131.105469 198.269531 C 131.222656 198.171875 131.324219 198.042969 131.398438 197.875 C 132.386719 195.617188 133.371094 193.367188 134.445312 191.152344 C 135.566406 188.839844 136.847656 186.609375 137.976562 184.304688 C 138.992188 182.230469 139.777344 180.0625 140.851562 178.011719 C 142.148438 175.527344 143.238281 173.023438 144.328125 170.433594 C 144.425781 170.195312 144.472656 170.207031 144.425781 170.304688 C 144.511719 170.15625 144.578125 169.976562 144.648438 169.839844 C 145.0625 169.078125 145.472656 168.3125 145.882812 167.546875 C 146.414062 166.566406 146.875 165.609375 147.296875 164.582031 C 147.636719 163.753906 147.972656 162.929688 148.308594 162.105469 C 148.421875 161.835938 148.53125 161.566406 148.640625 161.296875 C 148.644531 161.289062 148.644531 161.285156 148.648438 161.28125 C 148.652344 161.277344 148.652344 161.277344 148.65625 161.273438 C 149.074219 160.886719 149.359375 160.015625 149.636719 159.519531 C 150.042969 158.792969 150.449219 158.0625 150.855469 157.335938 C 151.910156 155.445312 152.824219 153.441406 153.703125 151.457031 C 154.246094 150.226562 154.734375 148.945312 155.34375 147.746094 C 155.988281 146.484375 156.769531 145.277344 157.476562 144.050781 C 158.550781 142.191406 159.175781 140.09375 160.285156 138.253906 C 160.414062 138.039062 160.539062 137.820312 160.667969 137.601562 C 159.96875 140.152344 158.902344 142.566406 158.132812 145.089844 C 157.703125 146.484375 157.316406 147.902344 156.839844 149.28125 C 156.296875 150.851562 155.652344 152.394531 155.152344 153.980469 C 154.691406 155.4375 154.371094 156.949219 153.984375 158.429688 C 153.636719 159.746094 153.101562 161.011719 152.632812 162.289062 C 151.71875 164.773438 151.035156 167.34375 150.070312 169.804688 C 148.914062 172.757812 147.769531 175.710938 146.644531 178.675781 C 145.617188 181.382812 144.652344 184.054688 143.816406 186.824219 C 143.449219 188.046875 143.058594 189.25 142.636719 190.457031 C 142.316406 191.375 141.996094 192.289062 141.675781 193.207031 C 141.628906 193.339844 141.539062 193.582031 141.546875 193.574219 C 141.460938 193.773438 141.378906 193.96875 141.292969 194.167969 C 140.683594 195.585938 139.945312 197.007812 139.460938 198.472656 C 138.933594 200.070312 138.640625 201.746094 138.132812 203.351562 C 137.859375 204.222656 137.5 205.078125 137.136719 205.925781 C 136.808594 205.550781 136.472656 205.179688 136.136719 204.804688 C 135.644531 204.257812 135.15625 203.707031 134.664062 203.15625 Z M 140.738281 210.59375 C 140.792969 210.671875 140.832031 210.722656 140.738281 210.59375 Z M 140.648438 210.484375 C 140.660156 210.492188 140.671875 210.511719 140.6875 210.53125 C 140.675781 210.515625 140.664062 210.5 140.648438 210.484375 Z M 154.496094 225.617188 C 153.132812 224.136719 151.929688 222.515625 150.472656 221.125 C 148.902344 219.625 147.34375 218.128906 145.828125 216.570312 C 144.277344 214.96875 142.914062 213.347656 141.527344 211.59375 C 141.253906 211.25 140.988281 210.898438 140.707031 210.554688 C 140.5625 210.367188 140.417969 210.175781 140.277344 209.988281 C 140.023438 209.652344 139.769531 209.320312 139.515625 208.984375 C 140.988281 205.933594 142.449219 202.878906 143.976562 199.863281 C 145.101562 197.648438 146.363281 195.550781 147.347656 193.269531 C 148.476562 190.640625 149.734375 188.152344 151.089844 185.632812 C 152.203125 183.5625 153.488281 181.597656 154.429688 179.445312 C 154.96875 178.210938 155.453125 176.925781 156.0625 175.726562 C 156.78125 174.320312 157.625 172.964844 158.398438 171.585938 C 160.957031 167.058594 163.394531 162.460938 165.675781 157.789062 C 167.253906 154.558594 169.117188 151.453125 171.007812 148.378906 C 170.898438 148.753906 170.792969 149.128906 170.675781 149.496094 C 169.9375 151.890625 169.339844 154.335938 168.5625 156.710938 C 168.148438 157.972656 167.628906 159.207031 167.164062 160.449219 C 167.0625 160.726562 166.953125 161 166.855469 161.277344 C 166.835938 161.335938 166.820312 161.375 166.8125 161.402344 C 166.554688 162 166.300781 162.601562 166.046875 163.203125 C 165.023438 165.613281 163.953125 168.003906 162.910156 170.402344 C 162.394531 171.582031 161.917969 172.78125 161.425781 173.96875 C 161.253906 174.382812 161.082031 174.800781 160.90625 175.214844 C 160.902344 175.226562 160.785156 175.488281 160.742188 175.582031 C 160.582031 175.941406 160.421875 176.300781 160.261719 176.65625 C 159.730469 177.835938 159.125 179.003906 158.675781 180.214844 C 158.15625 181.625 157.714844 183.070312 157.238281 184.492188 C 157.191406 184.625 157.125 184.773438 157.09375 184.917969 C 157.0625 184.980469 157.035156 185.042969 157.003906 185.105469 C 156.65625 185.871094 156.304688 186.632812 155.953125 187.398438 C 155.527344 188.328125 155.097656 189.257812 154.691406 190.195312 C 153.585938 192.761719 152.453125 195.308594 151.289062 197.847656 C 150.367188 199.867188 149.109375 201.800781 148.421875 203.910156 C 147.800781 205.800781 147.148438 207.664062 146.464844 209.519531 C 146.15625 210.34375 145.847656 211.171875 145.535156 211.996094 C 145.390625 212.375 145.246094 212.753906 145.105469 213.132812 C 144.523438 214.660156 146.957031 215.308594 147.542969 213.804688 C 148.066406 212.457031 148.589844 211.113281 149.089844 209.761719 C 149.199219 209.496094 149.296875 209.226562 149.382812 208.957031 C 149.398438 208.921875 149.410156 208.886719 149.421875 208.851562 C 149.421875 208.847656 149.421875 208.847656 149.421875 208.847656 C 149.554688 208.625 149.664062 208.375 149.78125 208.144531 C 150.90625 205.914062 152.03125 203.789062 153.355469 201.679688 C 154.640625 199.628906 155.652344 197.523438 156.707031 195.335938 C 157.578125 193.523438 158.875 191.9375 159.824219 190.164062 C 160.871094 188.203125 161.648438 186.121094 162.761719 184.195312 C 164.011719 182.035156 165.277344 179.910156 166.609375 177.804688 C 168.910156 174.167969 171.039062 170.421875 173.363281 166.800781 C 174.382812 165.210938 175.433594 163.652344 176.402344 162.039062 C 175.851562 163.511719 175.265625 164.96875 174.652344 166.4375 C 174.285156 167.320312 174.023438 168.234375 173.738281 169.148438 C 173.492188 169.925781 173.25 170.703125 173.007812 171.476562 C 172.964844 171.605469 172.914062 171.746094 172.871094 171.882812 C 172.898438 171.820312 172.90625 171.828125 172.859375 171.929688 C 172.851562 171.96875 172.832031 172.007812 172.828125 172.046875 C 172.835938 172.003906 172.84375 171.972656 172.855469 171.941406 C 172.839844 171.972656 172.828125 172 172.800781 172.050781 C 172.070312 173.371094 171.382812 174.714844 170.675781 176.046875 C 170.164062 177.003906 169.882812 178.082031 169.53125 179.105469 C 169.285156 179.816406 169.042969 180.527344 168.796875 181.238281 C 168.785156 181.277344 168.742188 181.398438 168.707031 181.496094 C 168.660156 181.589844 168.59375 181.734375 168.574219 181.773438 C 167.90625 183.121094 167.222656 184.464844 166.570312 185.816406 C 166.082031 186.832031 165.707031 187.910156 165.289062 188.953125 C 165.023438 189.628906 164.75 190.300781 164.484375 190.972656 C 164.46875 191.011719 164.460938 191.039062 164.449219 191.0625 C 164.464844 191.027344 164.484375 190.988281 164.5 190.945312 C 164.480469 190.992188 164.460938 191.035156 164.441406 191.082031 C 164.398438 191.191406 164.402344 191.171875 164.433594 191.105469 C 164.367188 191.25 164.304688 191.398438 164.238281 191.546875 C 163.179688 193.960938 162.101562 196.320312 160.902344 198.667969 C 160.445312 199.566406 159.996094 200.4375 159.640625 201.378906 C 159.140625 202.707031 158.5 204.046875 158.117188 205.414062 C 158.113281 205.425781 158.109375 205.425781 158.101562 205.4375 C 157.960938 205.679688 157.84375 205.9375 157.714844 206.1875 C 157.324219 206.941406 156.929688 207.699219 156.539062 208.453125 C 156.070312 209.359375 155.644531 210.238281 155.28125 211.191406 C 154.34375 213.652344 153.4375 216.117188 152.566406 218.605469 C 152.40625 219.058594 152.25 219.507812 152.089844 219.960938 C 151.617188 221.3125 153.742188 222.207031 154.398438 220.9375 C 155.15625 219.484375 155.851562 217.980469 156.671875 216.566406 C 157.453125 215.21875 158.472656 213.972656 159.367188 212.699219 C 160.1875 211.535156 160.777344 210.199219 161.445312 208.945312 C 162.121094 207.675781 162.855469 206.460938 163.597656 205.234375 C 166.667969 200.164062 169.582031 194.976562 172.507812 189.820312 C 175.546875 184.464844 178.648438 179.164062 181.835938 173.890625 C 183.285156 171.492188 184.882812 169.175781 186.265625 166.734375 C 187.777344 164.058594 189.167969 161.292969 190.726562 158.640625 C 192.09375 156.308594 193.605469 154.054688 195.113281 151.808594 C 195.101562 151.832031 195.089844 151.859375 195.078125 151.882812 C 194.710938 152.746094 194.367188 153.625 193.972656 154.476562 C 193.261719 156.023438 192.414062 157.511719 191.691406 159.058594 C 190.941406 160.671875 190.320312 162.359375 189.648438 164.011719 C 189.632812 164.039062 189.613281 164.082031 189.578125 164.144531 C 189.363281 164.566406 189.160156 164.996094 188.953125 165.421875 C 188.480469 166.386719 188 167.351562 187.535156 168.320312 C 186.808594 169.828125 186.136719 171.367188 185.4375 172.890625 C 184.738281 174.417969 183.898438 175.890625 183.121094 177.382812 C 181.574219 180.359375 180.269531 183.472656 178.921875 186.542969 C 178.25 188.078125 177.296875 189.488281 176.453125 190.933594 C 175.621094 192.355469 175 193.894531 174.3125 195.390625 C 173.59375 196.964844 172.953125 198.570312 172.292969 200.167969 C 172.15625 200.496094 172.019531 200.828125 171.882812 201.15625 C 171.886719 201.152344 171.886719 201.152344 171.890625 201.148438 C 171.886719 201.152344 171.882812 201.160156 171.878906 201.164062 C 171.863281 201.203125 171.847656 201.246094 171.832031 201.285156 C 171.78125 201.40625 171.765625 201.425781 171.777344 201.386719 C 171.765625 201.410156 171.753906 201.433594 171.742188 201.457031 C 171.253906 202.460938 170.789062 203.476562 170.3125 204.488281 C 168.886719 207.5 167.339844 210.453125 165.835938 213.421875 C 165.046875 214.980469 164.46875 216.53125 163.878906 218.179688 C 163.703125 218.667969 163.53125 219.15625 163.355469 219.640625 C 163.308594 219.769531 163.257812 219.894531 163.21875 220.023438 C 162.742188 220.839844 162.40625 221.78125 162.007812 222.636719 C 161.300781 224.164062 160.648438 225.699219 160.011719 227.261719 C 159.796875 227.800781 159.578125 228.335938 159.359375 228.875 C 159.289062 229.046875 159.214844 229.222656 159.144531 229.398438 C 159.136719 229.421875 159.121094 229.460938 159.101562 229.503906 C 159.09375 229.527344 159.082031 229.550781 159.074219 229.566406 C 159.023438 229.683594 158.96875 229.804688 158.917969 229.925781 C 158.734375 229.753906 158.550781 229.582031 158.371094 229.40625 C 157.074219 228.160156 155.714844 226.941406 154.496094 225.617188 Z M 172.660156 241.816406 C 170.949219 240.410156 169.324219 238.996094 167.722656 237.46875 C 166.121094 235.941406 164.414062 234.667969 162.640625 233.339844 C 162.445312 233.195312 162.25 233.046875 162.050781 232.898438 C 162.027344 232.878906 162.015625 232.867188 161.996094 232.851562 C 162.003906 232.863281 162.011719 232.867188 162.019531 232.878906 C 162.011719 232.867188 162 232.859375 161.992188 232.84375 C 161.867188 232.738281 161.839844 232.683594 161.882812 232.714844 C 161.667969 232.476562 161.363281 232.257812 161.148438 232.050781 C 161.089844 231.996094 161.03125 231.9375 160.972656 231.882812 C 162.332031 229.066406 163.671875 226.242188 165.105469 223.464844 C 166.160156 221.429688 167.148438 219.367188 168.144531 217.304688 C 168.960938 215.617188 170.035156 214.042969 170.964844 212.417969 C 173.230469 208.453125 175.238281 204.371094 177.402344 200.351562 C 178.433594 198.4375 179.265625 196.429688 180.269531 194.5 C 181.140625 192.832031 182.296875 191.3125 183.199219 189.65625 C 185.421875 185.589844 187.613281 181.511719 189.808594 177.429688 C 191.726562 173.871094 193.394531 170.1875 195.457031 166.707031 C 196.664062 164.675781 197.820312 162.675781 198.878906 160.566406 C 199.914062 158.503906 200.980469 156.457031 202.046875 154.410156 C 202.933594 152.710938 203.722656 150.960938 204.582031 149.246094 C 205.054688 148.304688 205.546875 147.375 206.023438 146.441406 C 205.472656 147.785156 204.910156 149.128906 204.355469 150.472656 C 203.894531 151.585938 203.421875 152.695312 202.972656 153.808594 C 202.960938 153.824219 202.957031 153.835938 202.941406 153.863281 C 202.839844 154.0625 202.746094 154.269531 202.652344 154.472656 C 202.328125 155.152344 202 155.832031 201.675781 156.511719 C 200.730469 158.488281 199.847656 160.488281 198.960938 162.488281 C 197.394531 166.019531 195.429688 169.464844 194.191406 173.128906 C 193.746094 174.4375 193.304688 175.746094 192.863281 177.054688 C 192.84375 177.113281 192.820312 177.171875 192.800781 177.230469 C 192.804688 177.226562 192.796875 177.253906 192.773438 177.3125 C 192.753906 177.363281 192.734375 177.417969 192.722656 177.46875 C 192.738281 177.40625 192.75 177.375 192.761719 177.335938 C 192.746094 177.367188 192.734375 177.394531 192.710938 177.433594 C 192.398438 177.96875 192.117188 178.519531 191.824219 179.058594 C 191.289062 180.03125 190.667969 180.996094 190.242188 182.023438 C 189.785156 183.125 189.347656 184.238281 188.902344 185.347656 C 188.730469 185.773438 188.542969 186.199219 188.386719 186.628906 C 188.277344 186.867188 188.175781 187.105469 188.070312 187.34375 C 187.542969 188.550781 187.007812 189.757812 186.484375 190.964844 C 186.101562 191.855469 185.738281 192.75 185.367188 193.644531 C 185.101562 194.289062 184.832031 194.9375 184.5625 195.582031 C 184.507812 195.710938 184.453125 195.84375 184.402344 195.972656 C 184.394531 195.988281 184.390625 195.996094 184.382812 196.015625 C 182.574219 200 180.773438 204.011719 179.261719 208.121094 C 179.035156 208.738281 178.808594 209.351562 178.582031 209.96875 C 178.535156 210.09375 178.480469 210.222656 178.441406 210.351562 C 178.453125 210.308594 178.464844 210.277344 178.472656 210.246094 C 178.460938 210.273438 178.445312 210.308594 178.429688 210.339844 C 177.824219 211.566406 177.246094 212.804688 176.652344 214.039062 C 176.292969 214.789062 176.019531 215.546875 175.742188 216.328125 C 175.363281 217.40625 174.777344 218.566406 174.546875 219.691406 C 174.59375 219.539062 174.664062 219.460938 174.546875 219.714844 C 174.542969 219.726562 174.535156 219.738281 174.53125 219.75 C 174.527344 219.761719 174.523438 219.777344 174.519531 219.789062 C 174.523438 219.777344 174.527344 219.765625 174.53125 219.753906 C 174.421875 219.988281 174.316406 220.222656 174.210938 220.460938 C 173.90625 221.132812 173.601562 221.808594 173.296875 222.480469 C 172.933594 223.285156 172.558594 224.085938 172.238281 224.910156 C 171.453125 226.933594 170.667969 228.960938 169.859375 230.976562 C 169.453125 231.996094 169.042969 233.011719 168.632812 234.03125 C 168.101562 235.359375 170.308594 236.289062 170.945312 235.007812 C 171.800781 233.277344 172.757812 231.570312 173.492188 229.785156 C 173.972656 228.605469 174.449219 227.425781 174.925781 226.246094 C 175.054688 225.929688 175.1875 225.617188 175.3125 225.296875 C 175.320312 225.289062 175.324219 225.289062 175.332031 225.273438 C 175.472656 225.101562 175.566406 224.859375 175.671875 224.664062 C 177.667969 221.078125 179.496094 217.398438 181.566406 213.859375 C 183.652344 210.300781 185.496094 206.671875 187.203125 202.917969 C 188.003906 201.160156 189.222656 199.605469 190.242188 197.96875 C 191.210938 196.414062 191.976562 194.71875 192.851562 193.109375 C 193.71875 191.523438 194.71875 189.988281 195.496094 188.355469 C 196.335938 186.585938 196.964844 184.691406 198.003906 183.027344 C 199.066406 181.324219 200.152344 179.648438 201.085938 177.871094 C 201.203125 177.644531 201.320312 177.417969 201.4375 177.195312 C 201.316406 177.519531 201.195312 177.84375 201.074219 178.167969 C 201.023438 178.3125 200.957031 178.457031 200.914062 178.601562 C 200.921875 178.570312 200.929688 178.546875 200.9375 178.523438 C 200.921875 178.558594 200.90625 178.601562 200.886719 178.640625 C 200.605469 179.261719 200.328125 179.886719 200.046875 180.507812 C 199.035156 182.757812 198.160156 185.019531 197.300781 187.335938 C 196.59375 189.238281 195.800781 191.117188 195.160156 193.039062 C 194.777344 194.183594 194.480469 195.363281 194.144531 196.519531 C 194.019531 196.941406 193.722656 197.53125 193.714844 197.976562 C 193.617188 198.199219 193.515625 198.421875 193.417969 198.644531 C 191.46875 203.015625 189.824219 207.476562 188.15625 211.960938 C 187.480469 213.777344 187.023438 215.667969 186.363281 217.484375 C 185.609375 219.558594 184.746094 221.585938 183.996094 223.660156 C 183.171875 225.9375 182.4375 228.1875 181.761719 230.511719 C 181.628906 230.96875 181.355469 231.527344 181.324219 232.007812 C 181.203125 232.257812 181.089844 232.507812 180.976562 232.753906 C 180.417969 233.957031 179.839844 235.152344 179.296875 236.363281 C 178.871094 237.308594 178.667969 238.367188 178.386719 239.359375 C 178.195312 240.035156 178.003906 240.710938 177.8125 241.386719 C 177.800781 241.4375 177.777344 241.492188 177.757812 241.550781 C 177.757812 241.570312 177.746094 241.613281 177.726562 241.679688 C 177.71875 241.707031 177.707031 241.738281 177.707031 241.765625 C 177.707031 241.742188 177.710938 241.734375 177.710938 241.714844 C 177.703125 241.742188 177.699219 241.757812 177.683594 241.789062 C 177.21875 242.792969 176.75 243.777344 176.316406 244.777344 C 175.101562 243.789062 173.875 242.8125 172.660156 241.816406 Z M 188.210938 241.605469 C 186.902344 242.992188 185.394531 244.1875 183.980469 245.46875 C 182.914062 246.433594 181.878906 247.441406 180.835938 248.441406 C 180.175781 247.910156 179.519531 247.371094 178.863281 246.839844 C 178.996094 246.53125 179.125 246.222656 179.261719 245.914062 C 180.410156 243.296875 181.375 240.691406 182.304688 237.988281 C 182.363281 237.824219 182.464844 237.632812 182.488281 237.460938 C 182.480469 237.515625 182.472656 237.558594 182.46875 237.59375 C 182.484375 237.542969 182.511719 237.472656 182.554688 237.398438 C 182.929688 236.710938 183.304688 236.023438 183.679688 235.335938 C 184.222656 234.335938 184.816406 233.363281 185.214844 232.296875 C 185.75 230.855469 186.347656 229.425781 186.828125 227.96875 C 186.835938 227.949219 186.835938 227.945312 186.839844 227.933594 C 186.941406 227.703125 187.039062 227.472656 187.140625 227.242188 C 187.503906 226.40625 187.867188 225.570312 188.230469 224.738281 C 188.65625 223.761719 189.070312 222.789062 189.46875 221.804688 C 189.804688 220.976562 190.136719 220.152344 190.472656 219.324219 C 190.597656 219.019531 190.71875 218.714844 190.84375 218.410156 C 190.859375 218.367188 190.871094 218.347656 190.886719 218.316406 C 190.878906 218.328125 190.875 218.335938 190.863281 218.351562 C 190.875 218.339844 190.882812 218.324219 190.890625 218.308594 C 190.949219 218.183594 190.980469 218.140625 190.964844 218.183594 C 191.25 217.703125 191.457031 217.136719 191.695312 216.640625 C 192.074219 215.863281 192.453125 215.085938 192.832031 214.304688 C 193.3125 213.316406 193.683594 212.292969 194.078125 211.265625 C 195.050781 208.742188 196.03125 206.21875 196.964844 203.679688 C 196.972656 203.648438 196.980469 203.628906 196.988281 203.609375 C 196.976562 203.636719 196.964844 203.664062 196.953125 203.683594 C 196.964844 203.660156 196.976562 203.632812 196.988281 203.609375 C 197.066406 203.40625 197.035156 203.507812 196.988281 203.609375 C 197.085938 203.425781 197.164062 203.222656 197.25 203.039062 C 197.609375 202.253906 197.972656 201.464844 198.335938 200.679688 C 198.792969 199.679688 199.246094 198.679688 199.660156 197.660156 C 199.996094 196.839844 200.332031 196.019531 200.664062 195.199219 C 200.800781 194.867188 200.9375 194.535156 201.070312 194.203125 C 201.136719 194.042969 201.460938 193.40625 201.140625 194.019531 C 201.804688 192.753906 202.332031 191.394531 202.921875 190.089844 C 203.855469 188.019531 204.992188 186.035156 205.863281 183.9375 C 206.457031 182.503906 207.050781 181.070312 207.640625 179.636719 C 207.664062 179.585938 207.6875 179.535156 207.710938 179.488281 C 207.699219 179.511719 207.6875 179.527344 207.675781 179.554688 C 207.765625 179.390625 207.832031 179.207031 207.90625 179.039062 C 208.265625 178.246094 208.625 177.453125 208.984375 176.660156 C 210.039062 174.316406 210.980469 171.933594 211.945312 169.554688 C 212.441406 168.324219 212.941406 167.097656 213.441406 165.867188 C 213.5625 165.5625 213.6875 165.257812 213.8125 164.953125 C 213.894531 164.75 214.0625 164.375 213.832031 164.894531 C 214.078125 164.339844 214.3125 163.785156 214.550781 163.230469 C 215.648438 160.699219 216.746094 158.167969 217.839844 155.636719 C 218.296875 154.585938 218.703125 153.515625 219.125 152.449219 C 219.417969 151.710938 219.714844 150.976562 220.003906 150.234375 C 220.011719 150.207031 220.019531 150.191406 220.027344 150.167969 C 220.015625 150.199219 220.003906 150.226562 219.996094 150.242188 C 220.007812 150.21875 220.015625 150.191406 220.03125 150.164062 C 220.105469 149.972656 220.070312 150.066406 220.03125 150.160156 C 220.125 149.976562 220.203125 149.78125 220.289062 149.597656 C 221.445312 147.046875 222.605469 144.5 223.769531 141.957031 C 223.992188 141.472656 224.199219 140.980469 224.402344 140.492188 C 223.625 142.84375 222.871094 145.203125 221.9375 147.496094 C 221.476562 148.636719 220.945312 149.769531 220.542969 150.933594 C 220.164062 152.019531 219.898438 153.160156 219.582031 154.265625 C 218.964844 156.410156 218.195312 158.492188 217.484375 160.605469 C 216.890625 162.378906 216.621094 164.25 216.0625 166.035156 C 215.378906 168.199219 214.664062 170.351562 213.925781 172.5 C 212.496094 176.667969 211.261719 180.878906 210.046875 185.113281 C 209.492188 187.042969 209.03125 189.023438 208.257812 190.875 C 207.734375 192.113281 207.152344 193.34375 206.691406 194.609375 C 206.335938 195.582031 206.105469 196.621094 205.816406 197.617188 C 204.652344 201.667969 203.058594 205.558594 201.796875 209.574219 C 201.082031 211.84375 200.367188 214.09375 199.542969 216.324219 C 198.710938 218.566406 198.113281 220.800781 197.507812 223.117188 C 197.027344 224.949219 196.058594 226.652344 195.394531 228.421875 C 195.285156 228.71875 195.179688 229.015625 195.070312 229.3125 C 194.296875 231.210938 193.558594 233.121094 192.871094 235.058594 C 192.542969 235.972656 192.21875 236.882812 191.894531 237.796875 C 190.636719 239.039062 189.425781 240.320312 188.210938 241.605469 Z M 205.398438 224.160156 C 205.214844 224.410156 205.347656 224.191406 205.429688 224.105469 C 205.328125 224.179688 205.234375 224.296875 205.148438 224.378906 C 203.734375 225.75 202.261719 227.058594 201.015625 228.589844 C 200.238281 229.542969 199.503906 230.5625 198.675781 231.46875 C 198.136719 232.054688 197.488281 232.558594 196.894531 233.089844 C 196.621094 233.332031 196.359375 233.578125 196.089844 233.824219 C 196.828125 231.84375 197.570312 229.867188 198.347656 227.902344 C 200.015625 224.148438 201.605469 220.378906 202.996094 216.507812 C 203.21875 215.882812 203.441406 215.257812 203.667969 214.632812 C 203.742188 214.421875 203.820312 214.210938 203.894531 214 C 203.921875 213.917969 203.941406 213.863281 203.953125 213.828125 C 204.375 212.816406 204.820312 211.8125 205.253906 210.804688 C 206.0625 208.921875 206.949219 207.078125 207.828125 205.226562 C 209.472656 201.757812 211.265625 198.375 212.808594 194.851562 C 213.199219 193.957031 213.566406 193.054688 213.945312 192.152344 C 214.195312 191.554688 214.445312 190.957031 214.699219 190.359375 C 214.765625 190.199219 214.835938 190.035156 214.902344 189.875 C 214.90625 189.867188 214.90625 189.871094 214.910156 189.863281 C 215.546875 188.867188 215.960938 187.640625 216.46875 186.574219 C 216.777344 185.921875 217.085938 185.265625 217.394531 184.613281 C 219.160156 180.835938 221.03125 177.109375 222.808594 173.339844 C 223.734375 171.382812 224.539062 169.441406 225.308594 167.414062 C 225.511719 166.886719 225.714844 166.359375 225.910156 165.828125 C 225.949219 165.722656 226 165.617188 226.03125 165.511719 C 226.015625 165.566406 226.003906 165.605469 225.992188 165.644531 C 226.011719 165.585938 226.035156 165.523438 226.054688 165.480469 C 226.589844 164.320312 227.105469 163.152344 227.632812 161.988281 C 229.285156 158.335938 231.132812 154.8125 232.441406 151.003906 C 232.515625 150.835938 232.589844 150.664062 232.664062 150.492188 C 232.953125 149.824219 233.238281 149.15625 233.527344 148.488281 C 233.53125 148.472656 233.539062 148.457031 233.546875 148.441406 C 232.71875 150.660156 231.824219 152.855469 231 155.070312 C 230.410156 156.652344 229.992188 158.3125 229.5 159.925781 C 229.007812 161.542969 228.386719 163.121094 227.824219 164.714844 C 226.703125 167.894531 225.65625 171.097656 224.628906 174.3125 C 224.113281 175.910156 223.476562 177.472656 222.882812 179.042969 C 222.816406 179.21875 222.75 179.398438 222.683594 179.574219 C 222.675781 179.601562 222.648438 179.671875 222.628906 179.730469 C 222.628906 179.734375 222.625 179.742188 222.625 179.746094 C 222.546875 179.933594 222.464844 180.121094 222.386719 180.308594 C 221.933594 181.382812 221.480469 182.457031 221.027344 183.53125 C 219.707031 186.664062 218.734375 189.96875 217.546875 193.160156 C 216.976562 194.699219 216.519531 196.269531 216.042969 197.84375 C 215.914062 198.265625 215.761719 198.691406 215.652344 199.121094 C 215.640625 199.167969 215.636719 199.191406 215.632812 199.214844 C 215.621094 199.234375 215.617188 199.242188 215.605469 199.269531 C 215.140625 200.234375 214.703125 201.207031 214.25 202.175781 C 212.828125 205.226562 211.75 208.421875 210.691406 211.613281 C 210.164062 213.195312 209.632812 214.777344 209.097656 216.355469 C 208.910156 216.898438 208.726562 217.445312 208.542969 217.988281 C 208.492188 218.132812 208.285156 218.710938 208.324219 218.648438 C 208.019531 219.382812 207.691406 220.105469 207.375 220.832031 C 207.132812 221.386719 206.894531 221.9375 206.65625 222.492188 C 206.550781 222.628906 206.449219 222.765625 206.34375 222.902344 C 206.03125 223.320312 205.714844 223.738281 205.398438 224.160156 Z M 232.410156 151.078125 C 232.421875 151.054688 232.429688 151.03125 232.441406 151.007812 C 232.390625 151.140625 232.285156 151.367188 232.410156 151.078125 Z M 221.941406 203.949219 C 221.824219 204.117188 221.707031 204.28125 221.59375 204.449219 C 221.265625 204.699219 220.980469 205.136719 220.707031 205.441406 C 220.246094 205.957031 219.78125 206.472656 219.316406 206.992188 C 217.9375 208.53125 216.742188 210.199219 215.507812 211.859375 C 215.378906 212.027344 215.25 212.199219 215.125 212.371094 C 215.109375 212.390625 215.097656 212.40625 215.089844 212.421875 C 214.832031 212.742188 214.582031 213.066406 214.328125 213.390625 C 213.671875 214.226562 213.035156 215.082031 212.363281 215.902344 C 212.457031 215.609375 212.554688 215.3125 212.652344 215.019531 C 212.675781 214.953125 212.703125 214.882812 212.730469 214.808594 C 212.90625 214.496094 213.042969 214.136719 213.191406 213.816406 C 213.652344 212.839844 214.109375 211.867188 214.570312 210.894531 C 215.234375 209.484375 215.851562 208.050781 216.488281 206.628906 C 217.125 205.203125 217.839844 203.816406 218.542969 202.421875 C 219.265625 200.988281 219.867188 199.527344 220.476562 198.039062 C 220.660156 197.585938 220.847656 197.132812 221.03125 196.679688 C 221.097656 196.515625 221.167969 196.351562 221.234375 196.1875 C 221.230469 196.191406 221.230469 196.191406 221.226562 196.195312 C 221.230469 196.191406 221.230469 196.1875 221.234375 196.1875 C 221.238281 196.175781 221.242188 196.164062 221.246094 196.152344 C 221.316406 195.980469 221.382812 195.9375 221.359375 196 C 221.753906 195.433594 222.023438 194.652344 222.324219 194.066406 C 223.023438 192.710938 223.695312 191.375 224.300781 189.972656 C 224.941406 188.492188 225.59375 187.019531 226.183594 185.515625 C 226.585938 184.480469 226.992188 183.445312 227.394531 182.414062 C 227.453125 182.265625 227.511719 182.117188 227.570312 181.964844 C 227.589844 181.933594 227.609375 181.902344 227.621094 181.886719 C 227.734375 181.703125 227.828125 181.503906 227.933594 181.316406 C 228.730469 179.871094 229.714844 178.429688 230.28125 176.871094 C 230.632812 175.898438 230.984375 174.921875 231.335938 173.949219 C 231.488281 173.527344 231.644531 173.109375 231.789062 172.691406 C 231.808594 172.640625 231.824219 172.589844 231.84375 172.539062 C 231.84375 172.539062 231.84375 172.539062 231.847656 172.535156 C 232.402344 171.78125 232.78125 170.796875 233.226562 169.972656 C 233.613281 169.25 234.046875 168.539062 234.367188 167.785156 C 235.015625 166.265625 235.65625 164.738281 236.265625 163.199219 C 236.308594 163.113281 236.34375 163.019531 236.386719 162.929688 C 236.59375 162.460938 236.800781 161.992188 237.007812 161.523438 C 237.414062 160.601562 237.824219 159.6875 238.226562 158.765625 C 238.894531 157.246094 239.4375 155.667969 240.03125 154.117188 C 240.085938 153.980469 240.136719 153.839844 240.191406 153.703125 C 240.179688 153.722656 240.175781 153.730469 240.160156 153.75 C 240.175781 153.726562 240.1875 153.699219 240.199219 153.679688 C 240.203125 153.664062 240.210938 153.648438 240.214844 153.636719 C 240.25 153.539062 240.289062 153.484375 240.300781 153.488281 C 240.378906 153.324219 240.453125 153.15625 240.527344 153 C 240.785156 152.472656 241.042969 151.941406 241.304688 151.414062 C 241.089844 152.464844 240.886719 153.523438 240.566406 154.542969 C 239.804688 156.941406 238.976562 159.289062 238.316406 161.71875 C 237.660156 164.125 236.933594 166.5 236.179688 168.878906 C 235.566406 170.824219 234.691406 172.691406 234.1875 174.667969 C 233.546875 177.183594 232.898438 179.691406 232.210938 182.191406 C 231.574219 184.496094 230.632812 186.660156 229.890625 188.925781 C 229.230469 190.9375 228.894531 193.035156 228.113281 195.007812 C 227.984375 195.332031 227.847656 195.660156 227.714844 195.984375 C 226.132812 198.074219 224.5625 200.167969 223.070312 202.316406 C 222.695312 202.863281 222.316406 203.40625 221.941406 203.949219 Z M 227.632812 181.828125 C 227.664062 181.765625 227.683594 181.730469 227.632812 181.828125 Z M 246.867188 162.390625 C 246.519531 163.53125 245.949219 164.777344 245.785156 165.960938 C 245.785156 165.96875 245.785156 165.96875 245.785156 165.976562 C 245.734375 166.085938 245.683594 166.195312 245.632812 166.300781 C 245.367188 166.875 245.105469 167.449219 244.839844 168.019531 C 243.976562 169.886719 243.101562 171.75 242.21875 173.609375 C 240.96875 176.25 239.351562 178.671875 237.753906 181.105469 C 238.644531 179.171875 239.523438 177.234375 240.355469 175.273438 C 241.804688 171.867188 243.441406 168.558594 245.019531 165.210938 C 245.945312 163.253906 246.601562 161.246094 247.292969 159.191406 C 247.351562 159.019531 247.429688 158.839844 247.472656 158.664062 C 247.730469 158.253906 247.917969 157.785156 248.132812 157.355469 C 248.496094 156.636719 248.859375 155.914062 249.222656 155.195312 C 248.46875 157.605469 247.59375 159.988281 246.867188 162.390625 Z M 251.054688 146.230469 C 250.796875 147.953125 250.636719 149.738281 250.253906 151.4375 C 250.105469 152.09375 249.933594 152.746094 249.753906 153.394531 C 249.46875 152.433594 248.046875 151.921875 247.476562 153.046875 C 246.679688 154.632812 245.707031 156.207031 245.078125 157.867188 C 244.699219 158.859375 244.394531 159.886719 244.054688 160.894531 C 243.890625 161.378906 243.714844 161.855469 243.566406 162.34375 C 243.546875 162.40625 243.539062 162.441406 243.53125 162.472656 C 243.511719 162.503906 243.496094 162.539062 243.464844 162.597656 C 241.910156 165.820312 240.273438 169.050781 238.875 172.34375 C 237.777344 174.9375 236.601562 177.496094 235.425781 180.058594 C 235.636719 179.238281 235.84375 178.417969 236.050781 177.597656 C 236.683594 175.101562 237.488281 172.753906 238.355469 170.328125 C 239.039062 168.421875 239.648438 166.460938 240.179688 164.507812 C 240.851562 162.035156 241.53125 159.601562 242.34375 157.175781 C 242.65625 156.242188 243.003906 155.320312 243.222656 154.359375 C 243.550781 152.925781 243.828125 151.46875 244.207031 150.046875 C 244.734375 148.058594 245.609375 146.160156 246.199219 144.183594 C 246.96875 141.605469 247.742188 139.027344 248.515625 136.449219 C 248.65625 135.984375 248.796875 135.523438 248.9375 135.058594 C 249.339844 133.71875 247.195312 132.738281 246.625 134.082031 C 246.582031 134.183594 246.542969 134.285156 246.5 134.386719 C 246.5 134.386719 246.5 134.382812 246.5 134.382812 C 246.496094 134.390625 246.496094 134.398438 246.492188 134.40625 C 245.917969 135.785156 245.390625 137.199219 244.738281 138.535156 C 244 140.050781 243.035156 141.449219 242.273438 142.953125 C 241.511719 144.453125 240.960938 146.09375 240.316406 147.652344 C 240.246094 147.824219 240.148438 148.003906 240.121094 148.046875 C 240.136719 148.023438 240.167969 147.964844 240.230469 147.863281 C 240.054688 148.152344 239.929688 148.484375 239.78125 148.785156 C 239.300781 149.765625 238.824219 150.742188 238.34375 151.722656 C 237.628906 153.1875 237.097656 154.734375 236.515625 156.257812 C 236.367188 156.648438 236.207031 157.039062 236.066406 157.433594 C 236.054688 157.460938 236.054688 157.46875 236.046875 157.488281 C 236.035156 157.511719 236.027344 157.527344 236.011719 157.558594 C 235.585938 158.503906 235.175781 159.453125 234.753906 160.402344 C 234.121094 161.832031 233.519531 163.273438 232.917969 164.722656 C 232.628906 165.425781 232.355469 166.148438 232.042969 166.847656 C 232.019531 166.875 231.84375 167.210938 231.78125 167.324219 C 231.535156 167.78125 231.289062 168.238281 231.042969 168.691406 C 230.265625 170.136719 229.539062 171.496094 228.984375 173.035156 C 228.617188 174.058594 228.246094 175.078125 227.878906 176.101562 C 227.851562 176.171875 227.820312 176.25 227.789062 176.324219 C 227.585938 176.566406 227.445312 176.964844 227.296875 177.234375 C 226.503906 178.675781 225.605469 180.089844 225.003906 181.625 C 224.613281 182.625 224.222656 183.621094 223.832031 184.621094 C 223.691406 184.984375 223.542969 185.347656 223.40625 185.714844 C 223.394531 185.746094 223.386719 185.757812 223.382812 185.777344 C 223.371094 185.800781 223.367188 185.8125 223.351562 185.84375 C 222.691406 187.355469 222.089844 188.90625 221.375 190.394531 C 221.234375 190.691406 221.082031 190.984375 220.929688 191.277344 C 221 191.097656 221.070312 190.917969 221.136719 190.738281 C 221.722656 189.160156 222.238281 187.550781 222.78125 185.957031 C 222.808594 185.875 222.929688 185.511719 222.96875 185.371094 C 223.066406 185.140625 223.167969 184.910156 223.265625 184.679688 C 223.71875 183.605469 224.167969 182.535156 224.621094 181.464844 C 225.296875 179.855469 225.886719 178.214844 226.5 176.582031 C 227.6875 173.429688 228.621094 170.167969 229.714844 166.976562 C 230.808594 163.785156 231.929688 160.617188 232.914062 157.386719 C 233.886719 154.199219 235.226562 151.117188 236.367188 147.984375 C 237.511719 144.855469 238.414062 141.640625 239.332031 138.4375 C 239.789062 136.832031 240.285156 135.25 240.800781 133.660156 C 241.320312 132.054688 241.699219 130.535156 242.03125 128.878906 C 242.191406 128.074219 242.351562 127.273438 242.515625 126.472656 C 242.835938 124.863281 240.644531 124.277344 240.078125 125.800781 C 238.757812 129.347656 237.5625 132.972656 236.101562 136.464844 C 235.582031 137.699219 235.066406 138.933594 234.546875 140.167969 C 234.519531 140.230469 234.492188 140.296875 234.464844 140.363281 C 234.453125 140.382812 234.441406 140.414062 234.417969 140.457031 C 234.171875 140.960938 233.941406 141.476562 233.707031 141.984375 C 232.820312 143.882812 231.957031 145.78125 231.128906 147.703125 C 230.273438 149.703125 229.46875 151.710938 228.679688 153.738281 C 228.511719 154.160156 228.332031 154.585938 228.179688 155.015625 C 228.074219 155.175781 228.003906 155.378906 227.921875 155.546875 C 227.335938 156.757812 226.75 157.96875 226.160156 159.175781 C 225.324219 160.902344 224.550781 162.660156 223.777344 164.414062 C 223.417969 165.226562 223.125 166.074219 222.8125 166.902344 C 222.570312 167.535156 222.332031 168.164062 222.09375 168.796875 C 222.007812 169.023438 221.917969 169.25 221.832031 169.476562 C 221.820312 169.515625 221.800781 169.554688 221.78125 169.59375 C 221.796875 169.566406 221.8125 169.542969 221.835938 169.507812 C 220.863281 171.089844 220.238281 172.949219 219.414062 174.617188 C 218.515625 176.429688 217.601562 178.230469 216.746094 180.058594 C 214.941406 183.910156 213.085938 187.726562 211.4375 191.644531 C 211.203125 192.207031 210.964844 192.773438 210.726562 193.335938 C 210.6875 193.433594 210.648438 193.527344 210.605469 193.621094 C 210.597656 193.644531 210.582031 193.671875 210.5625 193.71875 C 210.011719 194.875 209.5 196.050781 208.96875 197.214844 C 208.648438 197.921875 208.300781 198.617188 207.957031 199.3125 C 208.335938 197.945312 208.660156 196.558594 209.148438 195.234375 C 209.90625 193.175781 210.894531 191.246094 211.511719 189.136719 C 212.773438 184.792969 213.953125 180.421875 215.355469 176.117188 C 216.679688 172.050781 218.171875 168.058594 219.230469 163.90625 C 219.804688 161.648438 220.542969 159.492188 221.3125 157.285156 C 221.960938 155.421875 222.332031 153.460938 222.984375 151.597656 C 223.667969 149.625 224.636719 147.757812 225.277344 145.765625 C 225.996094 143.546875 226.722656 141.335938 227.519531 139.144531 C 228.320312 136.9375 229.183594 134.769531 230.0625 132.59375 C 230.859375 130.625 231.496094 128.589844 232.191406 126.585938 C 233.230469 123.605469 234.210938 120.597656 235.261719 117.621094 C 236.117188 117.921875 237.011719 118.257812 237.859375 118.359375 C 237.875 118.359375 237.878906 118.359375 237.890625 118.359375 C 237.996094 118.40625 238.101562 118.453125 238.207031 118.5 C 238.839844 118.78125 239.472656 119.058594 240.105469 119.339844 C 240.683594 119.59375 241.261719 119.851562 241.839844 120.105469 C 241.929688 120.144531 242.175781 120.304688 242.285156 120.308594 C 243.066406 121.179688 244.070312 121.925781 244.929688 122.714844 C 245.195312 122.957031 245.5 123.347656 245.816406 123.53125 C 245.929688 123.691406 246.042969 123.851562 246.152344 124.011719 C 246.890625 125.070312 247.570312 126.21875 248.390625 127.214844 C 248.417969 127.25 248.480469 127.328125 248.527344 127.386719 C 248.539062 127.417969 248.546875 127.445312 248.558594 127.472656 C 248.78125 128.007812 249 128.542969 249.222656 129.078125 C 249.601562 129.988281 250.058594 130.898438 250.363281 131.835938 C 250.6875 132.828125 250.847656 133.90625 251.082031 134.921875 C 251.210938 135.464844 251.316406 136.011719 251.460938 136.550781 C 251.464844 136.5625 251.46875 136.574219 251.46875 136.585938 C 251.472656 136.554688 251.476562 136.523438 251.480469 136.484375 C 251.472656 136.53125 251.476562 136.582031 251.480469 136.632812 C 251.492188 136.703125 251.492188 136.75 251.484375 136.769531 C 251.492188 136.828125 251.5 136.890625 251.5 136.945312 C 251.566406 138.222656 251.628906 139.5 251.691406 140.773438 C 251.699219 140.964844 251.699219 141.730469 251.742188 141.519531 C 251.691406 141.914062 251.625 142.304688 251.570312 142.699219 C 251.398438 143.875 251.230469 145.050781 251.054688 146.230469 Z M 251.054688 146.230469 " fill-opacity="1" fill-rule="nonzero"/></g><g fill="#fad02c" fill-opacity="1"><g transform="translate(50.18929, 120.521652)"><g><path d="M 23.757812 -48.523438 L 3.714844 -48.523438 L 3.714844 0.078125 L 20.121094 0.078125 C 22.441406 0.078125 48.367188 1.238281 48.367188 -24.996094 C 48.367188 -46.203125 32.734375 -48.523438 23.757812 -48.523438 Z M 19.964844 -1.160156 L 9.210938 -1.160156 L 9.210938 -47.207031 L 20.816406 -47.207031 C 29.640625 -47.207031 42.640625 -43.957031 42.640625 -24.996094 C 42.640625 -6.113281 30.570312 -1.160156 19.964844 -1.160156 Z M 19.964844 -1.160156 "/></g></g></g><g fill="#fad02c" fill-opacity="1"><g transform="translate(102.117195, 120.521652)"><g><path d="M 4.488281 0.078125 L 9.984375 0.078125 L 9.984375 -48.523438 L 4.488281 -48.523438 Z M 4.488281 0.078125 "/></g></g></g><g fill="#fad02c" fill-opacity="1"><g transform="translate(116.975851, 120.521652)"><g><path d="M 32.734375 -24.6875 L 32.734375 -23.371094 L 39.699219 -23.371094 L 39.699219 -1.625 C 37.070312 -0.617188 33.585938 0.15625 29.71875 0.15625 C 17.644531 0.15625 8.746094 -5.882812 8.746094 -24.066406 C 8.746094 -44.113281 21.515625 -48.214844 29.71875 -48.214844 C 38.847656 -48.214844 43.878906 -46.046875 43.878906 -46.046875 L 43.878906 -47.59375 C 43.878906 -47.59375 38.539062 -49.453125 29.71875 -49.453125 C 15.789062 -49.453125 3.09375 -42.023438 3.09375 -24.066406 C 3.09375 -3.40625 19.269531 1.46875 29.019531 1.46875 C 38.695312 1.46875 45.195312 -2.632812 45.195312 -2.632812 L 45.195312 -24.6875 Z M 32.734375 -24.6875 "/></g></g></g><g fill="#fad02c" fill-opacity="1"><g transform="translate(166.040365, 120.521652)"><g><path d="M 4.488281 0.078125 L 9.984375 0.078125 L 9.984375 -48.523438 L 4.488281 -48.523438 Z M 4.488281 0.078125 "/></g></g></g><g fill="#fad02c" fill-opacity="1"><g transform="translate(180.899017, 120.521652)"><g><path d="M 38 -48.523438 L 2.554688 -48.523438 L 2.554688 -47.285156 L 17.488281 -47.285156 L 17.488281 0.078125 L 23.0625 0.078125 L 23.0625 -47.285156 L 38 -47.285156 Z M 38 -48.523438 "/></g></g></g><g fill="#fad02c" fill-opacity="1"><g transform="translate(221.528157, 120.521652)"><g><path d="M 40.476562 0.078125 L 46.433594 0.078125 L 25.152344 -49.453125 L 24.765625 -49.453125 L 2.707031 0.078125 L 4.410156 0.078125 L 13.15625 -19.425781 L 32.039062 -19.425781 Z M 13.699219 -20.742188 L 22.753906 -41.09375 L 31.496094 -20.742188 Z M 13.699219 -20.742188 "/></g></g></g><g fill="#fad02c" fill-opacity="1"><g transform="translate(270.747448, 120.521652)"><g><path d="M 9.210938 -1.160156 L 9.210938 -48.523438 L 3.714844 -48.523438 L 3.714844 0.078125 L 28.558594 0.078125 L 28.558594 -1.160156 Z M 9.210938 -1.160156 "/></g></g></g><g fill="#ffffff" fill-opacity="1"><g transform="translate(219.857963, 256.486969)"><g><path d="M 6.082031 0 L 9.886719 0 L 9.886719 -36.964844 L 22.191406 -3.417969 L 26.496094 -3.417969 L 38.855469 -36.964844 L 38.855469 0 L 42.605469 0 L 42.605469 -39.242188 L 35.992188 -39.242188 L 24.21875 -6.832031 L 12.691406 -39.242188 L 6.082031 -39.242188 Z M 6.082031 0 "/></g></g></g><g fill="#ffffff" fill-opacity="1"><g transform="translate(197.051183, 243.135739)"><g><path d="M 12.859375 0 L 19.914062 0 L 19.914062 -32.9375 L 32.1875 -32.9375 L 32.1875 -39.242188 L 0.554688 -39.242188 L 0.554688 -32.9375 L 12.859375 -32.9375 Z M 12.859375 0 "/></g></g></g></svg>